<svg width="626" height="442" viewBox="0 0 626 442" fill="none" xmlns="http://www.w3.org/2000/svg">
<path d="M571.011 90.081H33.2687C25.0178 90.081 18.329 96.2047 18.329 103.759V428.258C18.329 435.812 25.0178 441.936 33.2687 441.936H571.011C579.262 441.936 585.951 435.812 585.951 428.258V103.759C585.951 96.2047 579.262 90.081 571.011 90.081Z" fill="#39374D"/>
<path d="M553.682 67.8696H15.9397C7.68871 67.8696 1 73.9933 1 81.5472V406.046C1 413.6 7.68871 419.724 15.9397 419.724H553.682C561.933 419.724 568.622 413.6 568.622 406.046V81.5472C568.622 73.9933 561.933 67.8696 553.682 67.8696Z" stroke="#3F3D56" stroke-miterlimit="10"/>
<path d="M1 101.603H568.622" stroke="#3F3D56" stroke-miterlimit="10"/>
<path opacity="0.3" d="M489.607 180.689H345.726C342.709 180.689 340.264 182.928 340.264 185.69V197.546C340.264 200.308 342.709 202.547 345.726 202.547H489.607C492.624 202.547 495.07 200.308 495.07 197.546V185.69C495.07 182.928 492.624 180.689 489.607 180.689Z" fill="#75AADC"/>
<path opacity="0.3" d="M519.259 241.329H316.074C313.057 241.329 310.612 243.568 310.612 246.33V253.956C310.612 256.718 313.057 258.957 316.074 258.957H519.259C522.276 258.957 524.721 256.718 524.721 253.956V246.33C524.721 243.568 522.276 241.329 519.259 241.329Z" fill="#75AADC"/>
<path opacity="0.3" d="M519.259 289.277H316.074C313.057 289.277 310.612 291.516 310.612 294.278V301.904C310.612 304.666 313.057 306.905 316.074 306.905H519.259C522.276 306.905 524.721 304.666 524.721 301.904V294.278C524.721 291.516 522.276 289.277 519.259 289.277Z" fill="#75AADC"/>
<path opacity="0.3" d="M519.259 337.225H316.074C313.057 337.225 310.612 339.464 310.612 342.226V349.852C310.612 352.614 313.057 354.853 316.074 354.853H519.259C522.276 354.853 524.721 352.614 524.721 349.852V342.226C524.721 339.464 522.276 337.225 519.259 337.225Z" fill="#75AADC"/>
<path d="M497.309 173.638H353.428C350.411 173.638 347.965 175.877 347.965 178.639V190.495C347.965 193.257 350.411 195.496 353.428 195.496H497.309C500.326 195.496 502.771 193.257 502.771 190.495V178.639C502.771 175.877 500.326 173.638 497.309 173.638Z" stroke="#F2F2F2" stroke-miterlimit="10"/>
<path d="M526.961 234.278H323.776C320.759 234.278 318.314 236.517 318.314 239.279V246.905C318.314 249.667 320.759 251.906 323.776 251.906H526.961C529.978 251.906 532.423 249.667 532.423 246.905V239.279C532.423 236.517 529.978 234.278 526.961 234.278Z" stroke="#F2F2F2" stroke-miterlimit="10"/>
<path d="M526.961 282.226H323.776C320.759 282.226 318.314 284.465 318.314 287.227V294.853C318.314 297.615 320.759 299.854 323.776 299.854H526.961C529.978 299.854 532.423 297.615 532.423 294.853V287.227C532.423 284.465 529.978 282.226 526.961 282.226Z" stroke="#F2F2F2" stroke-miterlimit="10"/>
<path d="M526.961 330.174H323.776C320.759 330.174 318.314 332.413 318.314 335.175V342.801C318.314 345.563 320.759 347.802 323.776 347.802H526.961C529.978 347.802 532.423 345.563 532.423 342.801V335.175C532.423 332.413 529.978 330.174 526.961 330.174Z" stroke="#F2F2F2" stroke-miterlimit="10"/>
<path opacity="0.3" d="M44.13 99.6C50.5104 99.6 55.6827 94.8646 55.6827 89.0232C55.6827 83.1818 50.5104 78.4464 44.13 78.4464C37.7496 78.4464 32.5773 83.1818 32.5773 89.0232C32.5773 94.8646 37.7496 99.6 44.13 99.6Z" fill="#75AADC"/>
<path opacity="0.3" d="M76.4775 99.6C82.8578 99.6 88.0301 94.8646 88.0301 89.0232C88.0301 83.1818 82.8578 78.4464 76.4775 78.4464C70.0971 78.4464 64.9248 83.1818 64.9248 89.0232C64.9248 94.8646 70.0971 99.6 76.4775 99.6Z" fill="#75AADC"/>
<path opacity="0.3" d="M108.825 99.6C115.205 99.6 120.378 94.8646 120.378 89.0232C120.378 83.1818 115.205 78.4464 108.825 78.4464C102.445 78.4464 97.2723 83.1818 97.2723 89.0232C97.2723 94.8646 102.445 99.6 108.825 99.6Z" fill="#75AADC"/>
<path d="M48.7511 95.3693C55.1314 95.3693 60.3038 90.6339 60.3038 84.7925C60.3038 78.9511 55.1314 74.2158 48.7511 74.2158C42.3707 74.2158 37.1984 78.9511 37.1984 84.7925C37.1984 90.6339 42.3707 95.3693 48.7511 95.3693Z" stroke="#3F3D56" stroke-miterlimit="10"/>
<path d="M81.0986 95.3693C87.479 95.3693 92.6513 90.6339 92.6513 84.7925C92.6513 78.9511 87.479 74.2158 81.0986 74.2158C74.7182 74.2158 69.5459 78.9511 69.5459 84.7925C69.5459 90.6339 74.7182 95.3693 81.0986 95.3693Z" stroke="#3F3D56" stroke-miterlimit="10"/>
<path d="M113.446 95.3693C119.826 95.3693 124.999 90.6339 124.999 84.7925C124.999 78.9511 119.826 74.2158 113.446 74.2158C107.066 74.2158 101.893 78.9511 101.893 84.7925C101.893 90.6339 107.066 95.3693 113.446 95.3693Z" stroke="#3F3D56" stroke-miterlimit="10"/>
<path d="M180.339 404.916C178.405 396.759 177.892 385.618 178.543 377.868C178.543 377.868 168.763 338.532 161.067 334.862L161.065 334.864C160.947 335.002 157.213 339.485 156.739 353.355C156.258 367.445 150.809 376.692 150.809 376.692C150.809 376.692 152.572 394.255 151.564 404.916L180.339 404.916Z" fill="#F2F2F2"/>
<path d="M251.484 154.599H73.9912C71.5869 154.599 69.2061 155.033 66.9848 155.875C64.7635 156.717 62.7452 157.952 61.0451 159.509C59.345 161.065 57.9964 162.913 57.0764 164.947C56.1563 166.98 55.6827 169.16 55.6827 171.361V388.155C55.6827 390.356 56.1563 392.536 57.0764 394.569C57.9964 396.603 59.345 398.451 61.0451 400.007C62.7452 401.564 64.7635 402.798 66.9848 403.641C69.2061 404.483 71.5869 404.917 73.9912 404.917H136.264C134.184 397.02 131.599 384.686 134.217 376.111L134.216 376.105L134.218 376.109C134.34 375.709 134.47 375.314 134.615 374.931C136.414 369.366 137.013 363.533 136.38 357.758C137.537 352.824 137.537 347.722 136.38 342.787C134.457 334.569 133.11 326.495 133.11 326.495C133.11 326.495 132.049 315.635 132.975 308.977C132.996 308.831 133.02 308.692 133.042 308.55C132.715 308.482 132.532 308.443 132.532 308.443C132.532 308.443 135.257 297.142 136.219 289.95C136.446 288.252 136.745 286.099 137.069 283.805C136.181 283.67 135.307 283.467 134.456 283.198C125.799 280.409 123.073 255.164 123.073 255.164V247.165C123.073 247.165 120.188 234.909 130.288 229.479C140.013 224.249 143.896 222.818 144.171 222.719C144.245 222.671 144.317 222.627 144.393 222.573C145.492 221.783 146.362 220.758 146.927 219.588C146.94 219.386 146.943 219.186 146.936 218.987C146.772 216.12 144.592 213.512 142.523 211.236C140.758 209.295 138.994 207.355 137.229 205.414C136.624 204.836 136.16 204.147 135.865 203.394C135.754 202.978 135.705 202.55 135.721 202.122C135.72 201.963 135.721 201.805 135.725 201.647C135.753 200.2 135.796 198.753 135.853 197.307C135.903 196.043 136.25 194.449 137.602 194.189C138.305 194.054 139.236 194.289 139.607 193.727C139.732 193.495 139.764 193.23 139.697 192.979C139.693 192.998 139.692 193.017 139.686 193.036C139.681 193.012 139.677 192.988 139.672 192.965C139.394 191.952 139.226 190.916 139.171 189.872C139.156 189.401 139.23 188.931 139.388 188.483C140.171 186.385 142.868 185.525 145.25 185.129C147.633 184.733 150.308 184.392 151.803 182.649C152.204 182.07 152.638 181.511 153.104 180.975C153.79 180.404 154.633 180.015 155.542 179.849C158.5 179.164 161.624 179.418 164.404 180.569C165.557 181.051 166.714 181.699 167.979 181.626C169.292 181.55 170.414 180.703 171.71 180.497C173.805 180.165 175.807 181.601 176.839 183.303C177.494 184.385 177.822 185.608 177.788 186.845C177.813 188.076 177.328 189.27 176.43 190.188C175.528 191.063 174.184 191.664 173.809 192.817C173.657 193.287 173.692 193.792 173.557 194.266C173.541 194.325 173.513 194.381 173.491 194.438C173.516 194.467 173.543 194.495 173.567 194.525C175.144 196.427 176.2 198.646 176.649 200.998C177.098 203.35 176.926 205.766 176.147 208.045C175.368 210.323 174.005 212.398 172.172 214.097C170.339 215.795 168.089 217.067 165.61 217.807C165.604 217.956 165.597 218.104 165.598 218.253C165.552 219.179 165.723 220.102 166.1 220.962C166.478 221.821 167.052 222.596 167.785 223.235L182.07 228.598C182.07 228.598 190.669 227.644 193.773 239.393C194.27 241.346 194.449 243.356 194.304 245.357C194.191 247.128 194.454 250.247 196.659 254.283C200.185 260.742 199.384 275.566 192.17 277.033C185.336 278.424 182.678 277.84 182.416 277.774L182.401 278.033C182.513 280.815 183.595 304.806 187.521 307.709C188.606 308.512 188.399 309.054 187.508 309.42L187.51 309.422C187.51 309.422 187.517 309.576 187.534 309.854C187.652 311.608 188.258 318.29 190.886 322.092C193.933 326.495 193.613 351.889 193.613 351.889L195.696 366.86C195.696 366.86 194.414 376.106 195.696 377.72C196.424 378.635 197.306 392.812 197.933 404.916H251.484C256.34 404.916 260.996 403.15 264.43 400.007C267.863 396.864 269.792 392.6 269.792 388.155V171.361C269.792 169.16 269.319 166.98 268.399 164.947C267.479 162.913 266.13 161.065 264.43 159.509C262.73 157.952 260.712 156.717 258.49 155.875C256.269 155.033 253.888 154.599 251.484 154.599Z" fill="#F2F2F2"/>
<path d="M233 135.561H55.5068C45.3953 135.561 37.1984 143.066 37.1984 152.323V369.117C37.1984 378.374 45.3953 385.878 55.5068 385.878H233C243.111 385.878 251.308 378.374 251.308 369.117V152.323C251.308 143.066 243.111 135.561 233 135.561Z" stroke="#4B5A78" stroke-miterlimit="10"/>
<path d="M551.201 5.25824C547.918 5.42802 544.751 6.43171 542.056 8.15678C539.361 9.88185 537.245 12.2601 535.943 15.0248C532.128 23.4678 537.041 33.3853 544.415 39.542C551.789 45.6987 561.261 49.2179 569.868 53.8435C581.428 60.0565 591.815 68.6812 597.599 79.7523C603.384 90.8234 603.999 104.537 597.2 115.114C590.889 124.931 579.414 130.806 568.471 136.225" stroke="#3F3D56" stroke-miterlimit="10"/>
<path d="M560.92 11.987C568.364 11.987 574.398 9.30362 574.398 5.9935C574.398 2.68338 568.364 0 560.92 0C553.476 0 547.442 2.68338 547.442 5.9935C547.442 9.30362 553.476 11.987 560.92 11.987Z" fill="#75AADC"/>
<path d="M571.702 51.4737C579.146 51.4737 585.181 48.7903 585.181 45.4802C585.181 42.1701 579.146 39.4867 571.702 39.4867C564.259 39.4867 558.224 42.1701 558.224 45.4802C558.224 48.7903 564.259 51.4737 571.702 51.4737Z" fill="#75AADC"/>
<path d="M547.057 57.8197C554.5 57.8197 560.535 55.1363 560.535 51.8262C560.535 48.5161 554.5 45.8327 547.057 45.8327C539.613 45.8327 533.578 48.5161 533.578 51.8262C533.578 55.1363 539.613 57.8197 547.057 57.8197Z" fill="#75AADC"/>
<path d="M585.566 90.9604C593.009 90.9604 599.044 88.277 599.044 84.9668C599.044 81.6567 593.009 78.9733 585.566 78.9733C578.122 78.9733 572.087 81.6567 572.087 84.9668C572.087 88.277 578.122 90.9604 585.566 90.9604Z" fill="#75AADC"/>
<path d="M612.522 90.9604C619.966 90.9604 626 88.277 626 84.9668C626 81.6567 619.966 78.9733 612.522 78.9733C605.078 78.9733 599.044 81.6567 599.044 84.9668C599.044 88.277 605.078 90.9604 612.522 90.9604Z" fill="#75AADC"/>
</svg>
