<svg width="473" height="388" viewBox="0 0 473 388" fill="none" xmlns="http://www.w3.org/2000/svg">
<g clip-path="url(#clip0)">
<path d="M108.438 78.4534L110.451 244.72L197.458 287.14L195.444 120.873L108.438 78.4534Z" fill="#F2F2F2"/>
<path d="M81.9989 65.1716L16.9857 198.759L105.199 241.768L103.186 75.5013L81.9989 65.1716Z" fill="#F2F2F2"/>
<path d="M473 252.839L297.409 167.229L299.423 333.496L407.987 386.427L473 252.839Z" fill="#F2F2F2"/>
<path d="M203.309 120.874L205.323 287.14L292.329 329.56L290.315 163.293L203.309 120.874Z" fill="#F2F2F2"/>
<path d="M399.691 127.956L388.766 128.38L389.31 142.44L400.236 142.016L399.691 127.956Z" fill="#75AADC"/>
<path d="M350.405 177.197C350.405 177.197 335.275 169.962 335.517 176.211C335.759 182.46 350.768 186.571 350.768 186.571L350.405 177.197Z" fill="#FFB9B9"/>
<path d="M358.707 230.071C358.707 230.071 351.568 247.559 348.931 260.178C346.293 272.797 342.277 290.164 347.443 302.48C352.61 314.796 367.299 350.994 367.451 354.899C367.602 358.805 366.192 362.771 369.314 362.65C372.436 362.529 389.423 357.176 390.113 354.802C390.803 352.428 384.317 346.422 384.317 346.422L368.303 296.194L385.011 263.471L397.063 312.288L399.424 373.216C399.424 373.216 411.009 369.637 412.691 372.701C412.691 372.701 417.881 365.459 418.541 362.304C419.2 359.149 416.089 299.033 416.089 299.033C416.089 299.033 426.724 230.561 418.139 230.894C409.554 231.227 375.93 210.628 358.707 230.071Z" fill="#2F2E41"/>
<path d="M369.193 359.525C369.193 359.525 361.274 377.043 360.524 377.855C359.774 378.666 354.614 386.689 358.516 386.538C362.418 386.387 371.632 382.117 378.413 375.596C385.195 369.074 394.136 357.775 393.325 357.024C392.515 356.273 386.961 354.142 386.961 354.142L369.193 359.525Z" fill="#2F2E41"/>
<path d="M400.833 369.25C400.833 369.25 400.355 377.091 398.916 380.276C397.476 383.461 397.658 388.148 401.56 387.996C405.462 387.845 415.546 385.889 415.546 385.889C415.546 385.889 416.145 381.172 415.335 380.421C414.524 379.67 411.069 371.199 412.539 368.795C414.009 366.391 400.833 369.25 400.833 369.25Z" fill="#2F2E41"/>
<path d="M406.606 114.779C406.606 114.779 414.925 127.755 418.167 130.759C421.41 133.762 412.287 140.375 412.287 140.375L395.959 142.573C395.959 142.573 396.164 127.701 395.323 126.169C394.483 124.637 406.606 114.779 406.606 114.779Z" fill="#FFB9B9"/>
<path d="M392.414 131.758C392.414 131.758 395.777 137.886 398.899 137.765C402.021 137.644 418.167 130.759 418.857 128.385C419.547 126.011 424.205 145.388 424.205 145.388L384.696 214.981L375.059 208.315L379.728 167.454L383.563 145.401L392.414 131.758Z" fill="#75AADC"/>
<path d="M420.314 194.041C418.738 197.341 417.754 200.782 417.89 204.305C417.896 204.462 417.903 204.618 417.916 204.774C418.29 212.003 420.951 220.364 421.906 226.445C422.598 230.807 422.401 233.99 419.851 234.739C413.668 236.543 420.753 237.833 396.832 245.802C372.912 253.771 368.737 246.893 368.677 245.33C368.616 243.768 372.064 231.9 371.254 231.149C370.443 230.398 359.911 240.977 356.728 239.536C353.546 238.095 356.365 230.162 356.365 230.162C356.365 230.162 363.534 213.456 363.383 209.55C363.231 205.645 374.241 187.224 374.241 187.224L381.73 138.431C381.73 138.431 384.61 132.061 388.481 131.129C392.353 130.196 395.566 132.418 395.566 132.418L389.087 146.751L382.251 172.05L383.394 181.393C383.394 181.393 391.344 164.656 396.564 158.195C401.785 151.734 412.916 136.439 412.916 136.439C412.916 136.439 415.515 127.662 413.553 125.039C411.591 122.409 421.737 122.015 426.062 132.799C428.355 138.515 432.077 147.038 434.409 154.974C436.487 162.004 437.468 168.577 435.41 172.333C432.264 178.072 424.349 185.616 420.314 194.041Z" fill="#575A89"/>
<path opacity="0.1" d="M435.41 172.334C432.264 178.073 424.349 185.616 420.314 194.041C419.26 190.241 417.975 186.309 417.975 186.309C417.975 186.309 413.044 159.903 427.63 153.078C430.046 152.844 432.463 153.52 434.409 154.974C436.487 162.004 437.468 168.577 435.41 172.334Z" fill="black"/>
<path d="M377.508 170.669L365.142 174.279L347.973 174.945L346.207 189.877L374.423 191.911C374.423 191.911 381.47 172.08 377.508 170.669Z" fill="#575A89"/>
<path d="M397.672 220.876C397.672 220.876 381.129 223.623 384.905 228.606C388.68 233.588 403.335 228.35 403.335 228.35L397.672 220.876Z" fill="#FFB9B9"/>
<path opacity="0.1" d="M417.916 204.774C418.29 212.003 420.951 220.364 421.906 226.445C416.636 231.437 411.625 235.84 409.736 235.914C405.834 236.065 399.56 235.526 397.249 236.398C394.938 237.27 393.583 222.459 393.583 222.459C393.583 222.459 394.962 217.712 401.115 215.126C405.268 213.377 413.228 208.632 417.916 204.774Z" fill="black"/>
<path d="M427.448 148.391C427.448 148.391 440.654 146.314 439.941 168.246C439.228 190.178 441.333 204.178 436.022 208.295C430.71 212.413 413.456 231.075 409.554 231.227C405.652 231.378 399.379 230.84 397.068 231.712C394.757 232.584 393.401 217.773 393.401 217.773C393.401 217.773 394.781 213.025 400.933 210.44C407.086 207.854 421.581 198.686 421.46 195.561C421.339 192.437 417.793 181.622 417.793 181.622C417.793 181.622 412.862 155.216 427.448 148.391Z" fill="#575A89"/>
<path d="M394.96 133.993C404.45 133.993 412.142 126.294 412.142 116.796C412.142 107.298 404.45 99.5981 394.96 99.5981C385.471 99.5981 377.778 107.298 377.778 116.796C377.778 126.294 385.471 133.993 394.96 133.993Z" fill="#FFB9B9"/>
<path d="M383.391 92.1468C382.977 92.5042 382.481 92.7534 381.947 92.8724C381.679 92.9202 381.402 92.86 381.179 92.7048C380.955 92.5496 380.801 92.3121 380.752 92.0441C380.359 92.8601 379.915 93.7298 379.113 94.1485C378.31 94.5672 377.069 94.2161 376.953 93.3176C376.836 93.9998 376.535 94.6369 376.081 95.1597C375.583 95.635 374.68 95.7549 374.246 95.2211C374.597 97.1437 374.38 99.1209 374.491 101.072C374.601 103.024 375.121 105.092 376.594 106.376C378.742 108.247 381.972 107.785 384.798 107.431C385.225 107.341 385.669 107.365 386.084 107.501C387.142 107.952 387.094 109.426 387.108 110.577C387.194 112.597 387.993 114.521 389.362 116.007C390.731 117.493 392.582 118.445 394.586 118.695C395.708 118.868 396.852 118.588 397.768 117.917C398.57 117.237 398.98 116.127 399.899 115.616C401.395 114.784 403.208 115.997 404.302 117.314C405.395 118.631 406.473 120.251 408.166 120.493C410.407 120.811 412.113 118.526 412.95 116.422C414.105 113.473 414.658 110.323 414.577 107.157C414.496 103.99 413.783 100.872 412.479 97.9861C407.801 87.7808 391.823 86.1666 383.391 92.1468Z" fill="#2F2E41"/>
<path d="M292.466 106.313C312.014 106.313 327.86 90.4519 327.86 70.8865C327.86 51.3211 312.014 35.4602 292.466 35.4602C272.919 35.4602 257.072 51.3211 257.072 70.8865C257.072 90.4519 272.919 106.313 292.466 106.313Z" fill="#75AADC"/>
<path d="M253.96 33.5101C262.115 41.8825 274.642 42.8965 274.642 42.8965C274.642 42.8965 273.947 30.3362 265.793 21.9638C257.638 13.5914 245.11 12.5774 245.11 12.5774C245.11 12.5774 245.805 25.1377 253.96 33.5101Z" fill="#3F3D56"/>
<path d="M256.695 29.207C267.974 32.252 274.966 42.7052 274.966 42.7052C274.966 42.7052 263.671 48.2216 252.392 45.1766C241.113 42.1316 234.121 31.6784 234.121 31.6784C234.121 31.6784 245.416 26.162 256.695 29.207Z" fill="#75AADC"/>
<path d="M267.767 21.2241C267.842 32.9166 276.165 42.3423 276.165 42.3423C276.165 42.3423 284.367 32.8107 284.292 21.1182C284.217 9.42571 275.894 0 275.894 0C275.894 0 267.692 9.5316 267.767 21.2241Z" fill="#3F3D56"/>
<path d="M272.72 20.0224C278.736 30.0451 276.531 42.4295 276.531 42.4295C276.531 42.4295 264.571 38.564 258.555 28.5413C252.538 18.5187 254.743 6.13428 254.743 6.13428C254.743 6.13428 266.703 9.99979 272.72 20.0224Z" fill="#75AADC"/>
<path d="M289.263 86.372C299.309 86.372 307.452 78.2213 307.452 68.1668C307.452 58.1124 299.309 49.9617 289.263 49.9617C279.218 49.9617 271.075 58.1124 271.075 68.1668C271.075 78.2213 279.218 86.372 289.263 86.372Z" fill="#F2F2F2"/>
<path d="M280.751 79.704C284.009 79.704 286.65 77.0605 286.65 73.7996C286.65 70.5387 284.009 67.8953 280.751 67.8953C277.493 67.8953 274.852 70.5387 274.852 73.7996C274.852 77.0605 277.493 79.704 280.751 79.704Z" fill="#3F3D56"/>
<path d="M102.25 385.217C121.797 385.217 137.644 369.356 137.644 349.791C137.644 330.226 121.797 314.365 102.25 314.365C82.7021 314.365 66.8556 330.226 66.8556 349.791C66.8556 369.356 82.7021 385.217 102.25 385.217Z" fill="#75AADC"/>
<path d="M86.7961 298.379C89.8467 309.666 100.296 316.656 100.296 316.656C100.296 316.656 105.799 305.347 102.748 294.06C99.6974 282.773 89.2485 275.782 89.2485 275.782C89.2485 275.782 83.7455 287.092 86.7961 298.379Z" fill="#3F3D56"/>
<path d="M91.2787 295.954C99.6496 304.11 100.672 316.647 100.672 316.647C100.672 316.647 88.1226 315.962 79.7518 307.805C71.3809 299.649 70.3585 287.112 70.3585 287.112C70.3585 287.112 82.9079 287.797 91.2787 295.954Z" fill="#75AADC"/>
<path d="M104.833 294.376C99.2105 304.626 101.896 316.915 101.896 316.915C101.896 316.915 113.696 312.586 119.318 302.336C124.941 292.087 122.255 279.798 122.255 279.798C122.255 279.798 110.455 284.126 104.833 294.376Z" fill="#3F3D56"/>
<path d="M109.743 295.74C110.123 307.426 102.173 317.169 102.173 317.169C102.173 317.169 93.6067 307.965 93.2265 296.278C92.8462 284.592 100.796 274.849 100.796 274.849C100.796 274.849 109.363 284.053 109.743 295.74Z" fill="#75AADC"/>
<path d="M100.775 364.06C110.82 364.06 118.964 355.909 118.964 345.855C118.964 335.8 110.82 327.65 100.775 327.65C90.7297 327.65 82.5863 335.8 82.5863 345.855C82.5863 355.909 90.7297 364.06 100.775 364.06Z" fill="#F2F2F2"/>
<path d="M106.674 342.902C109.932 342.902 112.573 340.259 112.573 336.998C112.573 333.737 109.932 331.094 106.674 331.094C103.416 331.094 100.775 333.737 100.775 336.998C100.775 340.259 103.416 342.902 106.674 342.902Z" fill="#3F3D56"/>
<path d="M189.26 384.725H4.91586V385.709H189.26V384.725Z" fill="#2F2E41"/>
<path d="M461.107 386.693H276.763V387.677H461.107V386.693Z" fill="#2F2E41"/>
<path d="M47.1375 385.443L46.2637 384.991C57.6105 363.035 51.543 334.521 44.4553 314.468C39.6426 300.989 33.5041 288.021 26.1301 275.757L26.9611 275.231C34.3733 287.558 40.5439 300.591 45.3819 314.139C52.5348 334.376 58.6451 363.174 47.1375 385.443Z" fill="#2F2E41"/>
<path d="M55.5506 275.407L49.1725 310.343L50.1393 310.52L56.5174 275.583L55.5506 275.407Z" fill="#2F2E41"/>
<path d="M13.1413 305.173L12.4213 305.844L45.3574 341.27L46.0774 340.599L13.1413 305.173Z" fill="#2F2E41"/>
<path d="M72.3523 344.088L55.6462 367.219L56.4431 367.795L73.1492 344.664L72.3523 344.088Z" fill="#2F2E41"/>
<path d="M58.4987 266.146C61.2136 266.146 63.4145 263.943 63.4145 261.225C63.4145 258.508 61.2136 256.305 58.4987 256.305C55.7837 256.305 53.5828 258.508 53.5828 261.225C53.5828 263.943 55.7837 266.146 58.4987 266.146Z" fill="#75AADC"/>
<path d="M4.91585 304.032C7.6308 304.032 9.83171 301.829 9.83171 299.112C9.83171 296.394 7.6308 294.191 4.91585 294.191C2.2009 294.191 0 296.394 0 299.112C0 301.829 2.2009 304.032 4.91585 304.032Z" fill="#3F3D56"/>
<path d="M26.5456 308.952C29.2606 308.952 31.4615 306.75 31.4615 304.032C31.4615 301.315 29.2606 299.112 26.5456 299.112C23.8307 299.112 21.6298 301.315 21.6298 304.032C21.6298 306.75 23.8307 308.952 26.5456 308.952Z" fill="#3F3D56"/>
<path d="M16.7139 328.142C19.4289 328.142 21.6298 325.939 21.6298 323.221C21.6298 320.504 19.4289 318.301 16.7139 318.301C13.999 318.301 11.798 320.504 11.798 323.221C11.798 325.939 13.999 328.142 16.7139 328.142Z" fill="#75AADC"/>
<path d="M78.1621 340.442C80.877 340.442 83.0779 338.24 83.0779 335.522C83.0779 332.805 80.877 330.602 78.1621 330.602C75.4471 330.602 73.2462 332.805 73.2462 335.522C73.2462 338.24 75.4471 340.442 78.1621 340.442Z" fill="#3F3D56"/>
<path d="M61.9397 345.855C64.6547 345.855 66.8556 343.652 66.8556 340.934C66.8556 338.217 64.6547 336.014 61.9397 336.014C59.2248 336.014 57.0239 338.217 57.0239 340.934C57.0239 343.652 59.2248 345.855 61.9397 345.855Z" fill="#3F3D56"/>
<path d="M73.2462 361.6C75.9612 361.6 78.1621 359.397 78.1621 356.679C78.1621 353.962 75.9612 351.759 73.2462 351.759C70.5313 351.759 68.3304 353.962 68.3304 356.679C68.3304 359.397 70.5313 361.6 73.2462 361.6Z" fill="#3F3D56"/>
<path d="M21.6298 272.05C24.3447 272.05 26.5456 269.847 26.5456 267.13C26.5456 264.412 24.3447 262.209 21.6298 262.209C18.9148 262.209 16.7139 264.412 16.7139 267.13C16.7139 269.847 18.9148 272.05 21.6298 272.05Z" fill="#3F3D56"/>
<path d="M337.521 88.1917H100.577V230.389H337.521V88.1917Z" fill="#4A4765"/>
<path d="M109.917 96.0641C111.274 96.0641 112.375 94.9627 112.375 93.604C112.375 92.2452 111.274 91.1438 109.917 91.1438C108.559 91.1438 107.459 92.2452 107.459 93.604C107.459 94.9627 108.559 96.0641 109.917 96.0641Z" fill="#75AADC"/>
<path d="M118.765 96.0641C120.123 96.0641 121.223 94.9627 121.223 93.604C121.223 92.2452 120.123 91.1438 118.765 91.1438C117.408 91.1438 116.307 92.2452 116.307 93.604C116.307 94.9627 117.408 96.0641 118.765 96.0641Z" fill="#75AADC"/>
<path d="M127.614 96.0641C128.971 96.0641 130.072 94.9627 130.072 93.604C130.072 92.2452 128.971 91.1438 127.614 91.1438C126.256 91.1438 125.156 92.2452 125.156 93.604C125.156 94.9627 126.256 96.0641 127.614 96.0641Z" fill="#75AADC"/>
<path d="M337.521 99.106H100.775V100.09H337.521V99.106Z" fill="#2F2E41"/>
<path d="M238.712 128.046V172.329H174.398L162.517 186.598L163.873 172.329H158.092V128.046H238.712Z" fill="#75AADC"/>
<path opacity="0.1" d="M238.712 143.299H209.709V172.329H238.712V143.299Z" fill="black"/>
<path d="M216.099 149.696H296.719V193.978H290.937L292.295 208.247L280.415 193.978H216.099V149.696Z" fill="#75AADC"/>
<path opacity="0.1" d="M163.008 193.738C172.782 193.738 180.705 192.965 180.705 192.01C180.705 191.056 172.782 190.282 163.008 190.282C153.234 190.282 145.311 191.056 145.311 192.01C145.311 192.965 153.234 193.738 163.008 193.738Z" fill="black"/>
<path opacity="0.1" d="M292.295 217.104C303.426 217.104 312.45 216.223 312.45 215.136C312.45 214.049 303.426 213.167 292.295 213.167C281.164 213.167 272.14 214.049 272.14 215.136C272.14 216.223 281.164 217.104 292.295 217.104Z" fill="black"/>
</g>
<defs>
<clipPath id="clip0">
<rect width="473" height="388" fill="white"/>
</clipPath>
</defs>
</svg>
