<svg width="110" height="110" viewBox="0 0 110 110" fill="none" xmlns="http://www.w3.org/2000/svg">
<path d="M72.9163 55.5636L110 79.0074V31.1299L72.9163 55.5636Z" fill="#F2F2F2"/>
<path d="M0 31.1299V79.0074L37.0838 55.5636L0 31.1299Z" fill="#F2F2F2"/>
<path d="M103.125 17.1875H6.87499C3.44436 17.1875 0.721863 19.745 0.206238 23.0381L55 59.1388L109.794 23.0381C109.278 19.745 106.556 17.1875 103.125 17.1875Z" fill="#F2F2F2"/>
<path d="M66.6188 59.7163L56.8906 66.1238C56.3131 66.502 55.66 66.6876 55 66.6876C54.34 66.6876 53.6869 66.502 53.1094 66.1238L43.3813 59.7095L0.220001 87.0101C0.749376 90.2757 3.45813 92.8126 6.875 92.8126H103.125C106.542 92.8126 109.251 90.2757 109.78 87.0101L66.6188 59.7163Z" fill="#F2F2F2"/>
</svg>
