<svg width="110" height="110" viewBox="0 0 110 110" fill="none" xmlns="http://www.w3.org/2000/svg">
<g clip-path="url(#clip0)">
<path d="M102.067 0H7.93327C3.55164 0 0 3.55164 0 7.93327V102.067C0 106.448 3.55164 110 7.93327 110H102.067C106.448 110 110 106.448 110 102.067V7.93327C110 3.55164 106.448 0 102.067 0V0ZM39.0176 83.1445H25.6226V42.8454H39.0176V83.1445ZM32.3206 37.3425H32.2333C27.7383 37.3425 24.8312 34.2483 24.8312 30.3811C24.8312 26.4266 27.8273 23.418 32.4095 23.418C36.9917 23.418 39.8116 26.4266 39.8988 30.3811C39.8988 34.2483 36.9917 37.3425 32.3206 37.3425ZM87.3172 83.1445H73.9239V61.5855C73.9239 56.1674 71.9844 52.4722 67.1378 52.4722C63.4377 52.4722 61.2338 54.9648 60.2654 57.3708C59.9112 58.2319 59.8248 59.4353 59.8248 60.6396V83.1445H46.4306C46.4306 83.1445 46.606 46.6261 46.4306 42.8454H59.8248V48.5513C61.6048 45.8054 64.7897 41.8996 71.8963 41.8996C80.7091 41.8996 87.3172 47.6592 87.3172 60.0371V83.1445Z" fill="#F2F2F2"/>
</g>
<defs>
<clipPath id="clip0">
<rect width="110" height="110" rx="15" fill="white"/>
</clipPath>
</defs>
</svg>
