<svg width="775" height="548" viewBox="0 0 775 548" fill="none" xmlns="http://www.w3.org/2000/svg">
<g clip-path="url(#clip0)">
<path d="M688.22 102.886H47.6001C44.8387 102.886 42.6001 105.124 42.6001 107.886V492.504C42.6001 495.265 44.8387 497.504 47.6001 497.504H688.22C690.981 497.504 693.22 495.265 693.22 492.504V107.886C693.22 105.124 690.981 102.886 688.22 102.886Z" fill="#F2F2F2"/>
<path d="M690.123 204.945C673.336 204.945 656.926 198.935 642.968 187.675C629.01 176.415 618.131 160.411 611.707 141.687C605.283 122.962 603.602 102.359 606.877 82.481C610.152 62.6033 618.236 44.3445 630.106 30.0134C641.976 15.6824 657.1 5.92289 673.564 1.96898C690.029 -1.98494 707.095 0.0443535 722.604 7.80024C738.113 15.5561 751.369 28.6903 760.696 45.5417C770.022 62.3932 775 82.2052 775 102.472C774.975 129.64 766.024 155.687 750.112 174.897C734.2 194.108 712.626 204.914 690.123 204.945ZM690.123 1.60113C673.598 1.60113 657.445 7.51712 643.705 18.601C629.965 29.6849 619.256 45.4388 612.932 63.8706C606.608 82.3024 604.954 102.584 608.178 122.151C611.401 141.718 619.359 159.692 631.044 173.799C642.728 187.906 657.616 197.513 673.823 201.405C690.03 205.297 706.83 203.3 722.097 195.665C737.363 188.03 750.412 175.102 759.593 158.513C768.774 141.925 773.674 122.423 773.674 102.472C773.649 75.7289 764.838 50.0895 749.175 31.179C733.511 12.2686 712.274 1.63139 690.123 1.60113Z" fill="#716F8D"/>
<path d="M690.408 154.221C713.946 154.221 733.027 131.184 733.027 102.766C733.027 74.3488 713.946 51.3117 690.408 51.3117C666.87 51.3117 647.788 74.3488 647.788 102.766C647.788 131.184 666.87 154.221 690.408 154.221Z" fill="#716F8D"/>
<path d="M748.74 51.1921C758.231 51.1921 765.925 41.9029 765.925 30.4442C765.925 18.9855 758.231 9.69635 748.74 9.69635C739.249 9.69635 731.555 18.9855 731.555 30.4442C731.555 41.9029 739.249 51.1921 748.74 51.1921Z" fill="#7AADDD"/>
<path d="M61.9638 127.199C66.2415 127.199 69.7092 123.012 69.7092 117.848C69.7092 112.683 66.2415 108.497 61.9638 108.497C57.6861 108.497 54.2183 112.683 54.2183 117.848C54.2183 123.012 57.6861 127.199 61.9638 127.199Z" fill="#7AADDD"/>
<path d="M85.9747 127.199C90.2525 127.199 93.7202 123.012 93.7202 117.848C93.7202 112.683 90.2525 108.497 85.9747 108.497C81.697 108.497 78.2293 112.683 78.2293 117.848C78.2293 123.012 81.697 127.199 85.9747 127.199Z" fill="#7AADDD"/>
<path d="M109.986 127.199C114.263 127.199 117.731 123.012 117.731 117.848C117.731 112.683 114.263 108.497 109.986 108.497C105.708 108.497 102.24 112.683 102.24 117.848C102.24 123.012 105.708 127.199 109.986 127.199Z" fill="#7AADDD"/>
<path d="M128.222 249.699H122.731C119.97 249.699 117.731 251.937 117.731 254.699V263.401C117.731 266.162 119.97 268.401 122.731 268.401H128.222C130.984 268.401 133.222 266.162 133.222 263.401V254.699C133.222 251.937 130.984 249.699 128.222 249.699Z" fill="#DADADA"/>
<path d="M599.921 412.409H594.43C591.669 412.409 589.43 414.647 589.43 417.409V426.111C589.43 428.872 591.669 431.111 594.43 431.111H599.921C602.683 431.111 604.921 428.872 604.921 426.111V417.409C604.921 414.647 602.683 412.409 599.921 412.409Z" fill="#DADADA"/>
<path d="M546.727 285.862L541.837 290.638C539.862 292.567 539.507 295.991 541.044 298.285L545.221 304.517C546.758 306.811 549.606 307.106 551.581 305.177L556.471 300.401C558.446 298.471 558.801 295.047 557.264 292.753L553.087 286.521C551.55 284.227 548.702 283.932 546.727 285.862Z" fill="#DADADA"/>
<path d="M495.71 535.844C495.71 536.36 495.292 536.779 494.775 536.779H14.2947C11.5333 536.779 9.29469 534.54 9.29469 531.779V221.485C9.29469 221.057 9.64145 220.71 10.0692 220.71C10.4969 220.71 10.8437 221.057 10.8437 221.485V529.909C10.8437 532.67 13.0823 534.909 15.8437 534.909H494.775C495.292 534.909 495.71 535.327 495.71 535.844Z" fill="#F2F2F2"/>
<path d="M505.005 548C503.013 548 501.067 547.287 499.411 545.951C497.755 544.615 496.464 542.717 495.702 540.496C494.94 538.274 494.741 535.83 495.129 533.472C495.518 531.114 496.477 528.948 497.885 527.248C499.293 525.547 501.087 524.39 503.04 523.921C504.994 523.452 507.018 523.692 508.858 524.612C510.698 525.532 512.271 527.091 513.377 529.09C514.483 531.089 515.074 533.439 515.074 535.844C515.071 539.066 514.009 542.156 512.121 544.435C510.234 546.714 507.674 547.996 505.005 548ZM505.005 525.557C503.32 525.557 501.672 526.161 500.271 527.291C498.87 528.421 497.778 530.028 497.133 531.907C496.488 533.787 496.32 535.855 496.648 537.85C496.977 539.846 497.789 541.678 498.98 543.117C500.172 544.556 501.69 545.535 503.343 545.932C504.995 546.329 506.708 546.125 508.265 545.347C509.822 544.568 511.153 543.25 512.089 541.558C513.025 539.867 513.525 537.878 513.525 535.844C513.522 533.116 512.624 530.502 511.026 528.573C509.429 526.645 507.264 525.56 505.005 525.557Z" fill="#F2F2F2"/>
<path d="M10.0691 221.645C8.07762 221.645 6.13086 220.932 4.47501 219.597C2.81915 218.261 1.52856 216.362 0.766455 214.141C0.00434763 211.92 -0.195055 209.475 0.193465 207.117C0.581984 204.759 1.54097 202.593 2.94917 200.893C4.35736 199.193 6.1515 198.035 8.10472 197.566C10.0579 197.097 12.0825 197.338 13.9224 198.258C15.7623 199.178 17.3349 200.736 18.4413 202.735C19.5477 204.734 20.1382 207.084 20.1382 209.489C20.1353 212.712 19.0735 215.802 17.1858 218.081C15.2981 220.36 12.7387 221.642 10.0691 221.645ZM10.0691 199.203C8.38401 199.203 6.73675 199.806 5.33564 200.936C3.93453 202.066 2.8425 203.673 2.19764 205.552C1.55278 207.432 1.38405 209.5 1.7128 211.496C2.04154 213.491 2.853 215.324 4.04454 216.762C5.23609 218.201 6.75421 219.181 8.40693 219.577C10.0597 219.974 11.7728 219.771 13.3296 218.992C14.8864 218.214 16.2171 216.895 17.1532 215.204C18.0894 213.512 18.5891 211.523 18.5891 209.489C18.5866 206.762 17.6881 204.147 16.0909 202.219C14.4936 200.29 12.328 199.206 10.0691 199.203Z" fill="#F2F2F2"/>
<path d="M155.684 474.126L148.767 497.504H133.222V473.658C134.368 443.744 148.272 429.68 148.705 429.25C138.257 441.416 139.418 483.477 139.418 483.477C146.389 447.008 152.586 446.073 152.586 446.073C148.837 452.871 146.901 483.795 146.784 485.721C147.249 479.222 155.684 474.126 155.684 474.126Z" fill="#F2F2F2"/>
<path d="M636.678 477.305V497.504H624.727L618.863 477.67C618.863 477.67 625.548 481.71 625.919 486.862C625.826 485.273 624.293 460.81 621.319 455.424C621.319 455.424 626.237 456.162 631.767 485.085C631.767 485.085 632.681 451.73 624.401 442.08C624.75 442.426 635.772 453.572 636.678 477.305Z" fill="#F2F2F2"/>
<path d="M427.512 418.95H408.673L408.547 417.085L407.174 396.294V396.286L405.749 374.671L414.442 330.088L421.829 339.006V381.492C421.829 381.492 426.172 389.361 425.303 391.459C424.435 393.556 423.566 393.556 424.435 395.125C425.303 396.703 426.172 397.751 425.303 398.8C424.881 399.482 424.652 400.31 424.652 401.162C424.652 402.013 424.881 402.842 425.303 403.523C426.172 404.572 427.909 406.141 426.603 407.718C425.303 409.287 423.566 408.239 425.303 414.011C425.622 415.078 426.022 416.107 426.497 417.085C426.807 417.729 427.145 418.351 427.512 418.95Z" fill="#D0CDE1"/>
<path d="M369.473 275.272L366.866 306.744L393.368 311.465L395.323 293.369L397.279 275.272H369.473Z" fill="#FFB9B9"/>
<path opacity="0.1" d="M369.473 275.272L366.866 306.744L393.368 311.465L395.323 293.369L397.279 275.272H369.473Z" fill="black"/>
<path d="M384.027 285.5C395.545 285.5 404.882 274.228 404.882 260.323C404.882 246.418 395.545 235.145 384.027 235.145C372.51 235.145 363.173 246.418 363.173 260.323C363.173 274.228 372.51 285.5 384.027 285.5Z" fill="#FFB9B9"/>
<path d="M331.329 418.95C331.256 418.766 331.176 418.574 331.097 418.366C330.944 417.974 330.778 417.549 330.599 417.085C329.445 413.979 328.033 409.56 328.849 408.239C330.155 406.141 330.586 404.044 329.717 402.995C328.849 401.946 326.243 404.044 328.849 401.418C331.455 398.8 332.323 400.369 331.455 397.223C330.586 394.077 328.849 395.654 330.586 394.077C332.323 392.508 333.63 393.028 332.761 391.459C331.892 389.882 330.155 389.882 331.892 388.833C333.63 387.784 334.936 388.833 334.498 386.207C334.061 383.589 333.63 384.638 334.498 383.589C334.724 383.317 335.513 380.675 336.567 376.905C339.518 366.249 344.491 346.595 344.491 345.819C344.491 344.77 337.542 311.731 337.542 311.731L334.498 309.625C334.498 309.625 321.031 320.641 316.687 345.298C312.337 369.948 309.3 376.248 309.3 376.248C309.3 376.248 304.957 377.297 307.994 380.963C311.038 384.638 311.038 384.11 308.432 386.207C305.826 388.305 304.088 384.11 305.826 388.305C307.563 392.508 309.731 391.459 307.994 394.077C306.257 396.703 303.22 396.703 304.957 398.8C306.694 400.898 303.22 405.621 305.388 407.718C307.563 409.816 308.432 410.336 308.432 414.011C308.433 415.041 308.501 416.068 308.637 417.085C308.712 417.714 308.818 418.337 308.956 418.95C309.055 419.439 309.155 419.807 309.221 420.039L331.329 418.95Z" fill="#D0CDE1"/>
<path d="M331.329 418.95H333.099L333.192 418.206L331.097 418.366L323.478 418.95L309.221 420.039L331.329 418.95Z" fill="#3F3D56"/>
<path d="M340.579 396.703L336.673 380.443L336.567 376.905L334.498 309.625L360.134 298.617L364.477 294.414C364.477 294.414 365.346 282.35 366.652 281.301C367.123 280.925 367.879 281.365 368.88 282.39C370.637 284.191 373.157 287.786 376.207 291.797C380.988 298.089 390.981 297.04 394.018 294.943C394.409 294.668 394.814 294.425 395.232 294.214C397.413 293.125 398.362 293.894 398.362 293.894C400.537 295.992 395.325 302.812 395.325 302.812C395.325 302.812 397.062 307.528 408.355 312.251C419.654 316.974 421.829 339.006 421.829 339.006C421.829 339.006 408.355 383.061 408.792 386.207C409.164 388.905 407.625 394.685 407.174 396.286V396.294C407.101 396.55 407.055 396.703 407.055 396.703L408.043 417.085L408.136 418.95H342.416C342.22 418.302 341.974 417.677 341.68 417.085C341.607 416.941 341.527 416.789 341.448 416.637C337.542 409.287 340.579 396.703 340.579 396.703Z" fill="#D0CDE1"/>
<path d="M363.028 263.548C363.028 263.548 360.863 259.626 361.696 255.403C362.193 253.005 362.39 250.53 362.279 248.062C362.279 248.062 364.028 241.224 365.777 237.403C367.526 233.581 366.693 231.972 372.191 230.766C377.688 229.559 375.439 220.911 389.932 230.263C390.421 231.087 391.101 231.718 391.887 232.076C392.673 232.434 393.528 232.503 394.347 232.274C397.345 231.57 398.428 236.598 398.428 236.598C398.428 236.598 400.427 235.19 401.177 237.202C401.926 239.213 407.271 235.994 407.271 249.57C407.271 263.146 401.189 275.272 401.189 275.272C401.189 275.272 401.635 252.436 391.723 250.123C381.811 247.811 371.149 241.073 368.567 249.721C367.174 254.575 365.315 259.215 363.028 263.548Z" fill="#2F2E41"/>
<path d="M401.406 268.978C402.486 268.978 403.361 267.569 403.361 265.83C403.361 264.092 402.486 262.683 401.406 262.683C400.326 262.683 399.451 264.092 399.451 265.83C399.451 267.569 400.326 268.978 401.406 268.978Z" fill="#FFB9B9"/>
<path opacity="0.1" d="M469.376 216.97H225.393V418.954H469.376V216.97Z" fill="black"/>
<path d="M230.392 202.005C227.63 202.005 225.392 204.244 225.392 207.005V413.95C225.392 416.712 227.63 418.95 230.392 418.95H505.426C508.187 418.95 510.426 416.712 510.426 413.95V207.005C510.426 204.244 508.187 202.005 505.426 202.005H230.392ZM508.881 412.085C508.881 414.846 506.642 417.085 503.881 417.085H231.943C229.182 417.085 226.943 414.846 226.943 412.085V208.879C226.943 206.117 229.182 203.879 231.943 203.879H503.881C506.642 203.879 508.881 206.117 508.881 208.879V412.085Z" fill="#3F3D56"/>
</g>
<defs>
<clipPath id="clip0">
<rect width="775" height="548" rx="5" fill="white"/>
</clipPath>
</defs>
</svg>
