<svg width="124" height="116" viewBox="0 0 124 116" fill="none" xmlns="http://www.w3.org/2000/svg">
<path d="M58.4607 0.968977L54.6663 3.04342L7.91875 28.601L4.12437 30.6754C2.28322 31.6847 0.916796 33.3846 0.324883 35.4021C-0.267029 37.4196 -0.0360943 39.59 0.967026 41.4371L35.7788 105.367C36.7861 107.212 38.4826 108.581 40.496 109.174C42.5095 109.767 44.6755 109.536 46.519 108.531L46.5288 108.525L100.845 78.8295L100.855 78.8242C102.696 77.8149 104.063 76.115 104.655 74.0975C105.247 72.08 105.016 69.9097 104.013 68.0625L69.2008 4.13267C68.1936 2.28783 66.4971 0.918667 64.4836 0.325564C62.4702 -0.26754 60.3041 -0.0361468 58.4607 0.968977Z" fill="#F2F2F2"/>
<path d="M59.551 2.97217L55.0568 5.4292L9.70874 30.2217L5.21462 32.6787C3.90349 33.3974 2.93042 34.6079 2.50891 36.0446C2.08739 37.4813 2.25184 39.0269 2.96619 40.3423L37.778 104.272C38.4953 105.586 39.7034 106.561 41.1372 106.983C42.5711 107.406 44.1136 107.241 45.4263 106.525L45.4361 106.52L99.7528 76.824L99.7627 76.8186C101.074 76.0998 102.047 74.8893 102.468 73.4526C102.89 72.0159 102.725 70.4704 102.011 69.155L67.1992 5.22514C66.482 3.91139 65.2739 2.93638 63.8401 2.51401C62.4062 2.09164 60.8638 2.25642 59.551 2.97217Z" fill="white"/>
<path d="M60.3003 22.816L40.0423 33.8914C39.7354 34.0591 39.3745 34.0979 39.0391 33.9991C38.7037 33.9003 38.4212 33.672 38.2538 33.3645C38.0863 33.057 38.0476 32.6954 38.1462 32.3594C38.2448 32.0233 38.4726 31.7402 38.7795 31.5724L59.0376 20.4971C59.3445 20.3293 59.7053 20.2905 60.0408 20.3893C60.3762 20.4881 60.6587 20.7164 60.8261 21.0239C60.9936 21.3314 61.0322 21.693 60.9336 22.0291C60.835 22.3651 60.6072 22.6482 60.3003 22.816H60.3003Z" fill="#F2F2F2"/>
<path d="M67.2044 24.1196L42.1731 37.8046C41.8662 37.9723 41.5054 38.0111 41.17 37.9123C40.8346 37.8135 40.5521 37.5852 40.3846 37.2777C40.2172 36.9702 40.1785 36.6086 40.2771 36.2726C40.3757 35.9365 40.6035 35.6534 40.9104 35.4856L65.9417 21.8006C66.0937 21.7176 66.2605 21.6653 66.4326 21.6468C66.6047 21.6283 66.7788 21.644 66.9448 21.6929C67.1109 21.7418 67.2658 21.823 67.4005 21.9319C67.5353 22.0408 67.6473 22.1752 67.7302 22.3275C67.8131 22.4797 67.8653 22.6469 67.8837 22.8193C67.9022 22.9918 67.8866 23.1662 67.8377 23.3326C67.7889 23.4991 67.7078 23.6542 67.5992 23.7892C67.4905 23.9242 67.3564 24.0365 67.2044 24.1196H67.2044Z" fill="#F2F2F2"/>
<path d="M31.714 29.2811L13.0372 39.492C12.8902 39.5724 12.7811 39.708 12.7339 39.8691C12.6866 40.0301 12.7051 40.2033 12.7853 40.3507L20.7384 54.9559C20.8186 55.1033 20.954 55.2126 21.1147 55.2599C21.2754 55.3073 21.4483 55.2887 21.5953 55.2084L40.2721 44.9975C40.4191 44.9171 40.5282 44.7815 40.5755 44.6205C40.6227 44.4594 40.6042 44.2862 40.524 44.1389L32.571 29.5336C32.4907 29.3863 32.3554 29.2769 32.1947 29.2296C32.034 29.1822 31.8611 29.2008 31.714 29.2811Z" fill="#F2F2F2"/>
<path d="M70.3518 41.3477L42.8743 56.3701C42.7224 56.4532 42.5556 56.5055 42.3835 56.5239C42.2113 56.5424 42.0373 56.5268 41.8712 56.4778C41.7051 56.4289 41.5503 56.3477 41.4155 56.2388C41.2808 56.1299 41.1687 55.9955 41.0858 55.8433C41.0029 55.691 40.9507 55.5239 40.9323 55.3514C40.9138 55.1789 40.9295 55.0045 40.9783 54.8381C41.0271 54.6717 41.1082 54.5165 41.2168 54.3815C41.3255 54.2465 41.4596 54.1342 41.6116 54.0512L69.0891 39.0288C69.396 38.861 69.7568 38.8223 70.0923 38.9211C70.4277 39.0199 70.7102 39.2481 70.8776 39.5556C71.0451 39.8631 71.0837 40.2247 70.9851 40.5608C70.8865 40.8969 70.6587 41.1799 70.3518 41.3477H70.3518Z" fill="#F2F2F2"/>
<path d="M77.256 42.6513L45.0052 60.2832C44.6983 60.451 44.3375 60.4898 44.002 60.391C43.6666 60.2922 43.3841 60.0639 43.2167 59.7564C43.0492 59.4489 43.0105 59.0873 43.1092 58.7513C43.2078 58.4152 43.4356 58.1321 43.7425 57.9643L75.9933 40.3324C76.3001 40.1646 76.661 40.1258 76.9964 40.2246C77.3318 40.3234 77.6143 40.5517 77.7818 40.8592C77.9492 41.1667 77.9879 41.5283 77.8893 41.8644C77.7907 42.2005 77.5629 42.4835 77.256 42.6513H77.256Z" fill="#F2F2F2"/>
<path d="M32.4096 68.673C35.4982 68.673 38.002 66.1641 38.002 63.0693C38.002 59.9745 35.4982 57.4657 32.4096 57.4657C29.321 57.4657 26.8171 59.9745 26.8171 63.0693C26.8171 66.1641 29.321 68.673 32.4096 68.673Z" fill="#F2F2F2"/>
<path d="M116.084 27.3099H54.186C52.0874 27.3123 50.0753 28.1487 48.5913 29.6357C47.1074 31.1226 46.2726 33.1387 46.2703 35.2416V108.068C46.2726 110.171 47.1074 112.187 48.5913 113.674C50.0753 115.161 52.0874 115.998 54.186 116H116.084C118.183 115.998 120.195 115.161 121.679 113.674C123.163 112.187 123.998 110.171 124 108.068V35.2416C123.998 33.1387 123.163 31.1226 121.679 29.6357C120.195 28.1487 118.183 27.3123 116.084 27.3099Z" fill="#E6E6E6"/>
<path d="M116.084 29.5933H54.186C52.6915 29.5949 51.2587 30.1906 50.2019 31.2495C49.1451 32.3084 48.5507 33.744 48.549 35.2415V108.068C48.5507 109.566 49.1451 111.002 50.2019 112.06C51.2587 113.119 52.6915 113.715 54.186 113.717H116.084C117.579 113.715 119.012 113.119 120.068 112.06C121.125 111.002 121.72 109.566 121.721 108.068V35.2415C121.72 33.7441 121.125 32.3084 120.068 31.2495C119.012 30.1906 117.579 29.595 116.084 29.5933Z" fill="white"/>
<path d="M107.257 47.3725H84.1792C83.8296 47.3725 83.4943 47.2333 83.2471 46.9856C82.9999 46.7379 82.861 46.402 82.861 46.0517C82.861 45.7014 82.9999 45.3654 83.2471 45.1177C83.4943 44.87 83.8296 44.7308 84.1792 44.7308H107.257C107.43 44.7306 107.601 44.7647 107.761 44.831C107.922 44.8972 108.067 44.9945 108.19 45.1172C108.312 45.2398 108.409 45.3855 108.476 45.5459C108.542 45.7062 108.576 45.8781 108.576 46.0517C108.576 46.2252 108.542 46.3971 108.476 46.5575C108.409 46.7178 108.312 46.8635 108.19 46.9862C108.067 47.1088 107.922 47.2061 107.761 47.2724C107.601 47.3387 107.43 47.3727 107.257 47.3725Z" fill="#75AADC"/>
<path d="M112.694 51.8303H84.1792C83.8296 51.8303 83.4943 51.6911 83.2471 51.4434C82.9999 51.1957 82.861 50.8597 82.861 50.5094C82.861 50.1591 82.9999 49.8232 83.2471 49.5755C83.4943 49.3278 83.8296 49.1886 84.1792 49.1886H112.694C113.044 49.1886 113.379 49.3278 113.626 49.5755C113.873 49.8232 114.012 50.1591 114.012 50.5094C114.012 50.8597 113.873 51.1957 113.626 51.4434C113.379 51.6911 113.044 51.8303 112.694 51.8303Z" fill="#75AADC"/>
<path d="M79.0721 39.3285H57.7962C57.6287 39.3285 57.468 39.3952 57.3496 39.5139C57.2312 39.6326 57.1646 39.7935 57.1646 39.9614V56.5992C57.1646 56.7671 57.2312 56.928 57.3496 57.0467C57.468 57.1654 57.6287 57.2321 57.7962 57.2321H79.0721C79.2396 57.2321 79.4003 57.1654 79.5187 57.0467C79.6371 56.928 79.7037 56.7671 79.7037 56.5992V39.9614C79.7037 39.7935 79.6371 39.6326 79.5187 39.5139C79.4003 39.3952 79.2396 39.3285 79.0721 39.3285Z" fill="#E6E6E6"/>
<path d="M63.6323 49.5453C63.6411 50.9499 63.1244 52.3068 62.1842 53.3485C61.2539 54.3716 59.8689 55.05 58.4713 54.7693C57.1843 54.5108 56.1385 53.3838 56.269 52.0203C56.2907 51.725 56.3763 51.4379 56.52 51.1792C56.6637 50.9204 56.862 50.6962 57.1011 50.5221C57.3402 50.348 57.6142 50.2283 57.9042 50.1712C58.1942 50.1141 58.4931 50.1211 58.7801 50.1917C60.0027 50.5096 60.4898 52.2751 59.4711 53.1038C59.2266 53.3026 58.8754 52.9548 59.1221 52.7541C59.7956 52.2063 59.5876 51.0079 58.7747 50.7073C57.8283 50.3574 56.8256 51.11 56.7575 52.0795C56.6768 53.2289 57.5556 54.0946 58.6333 54.2984C59.7992 54.5188 60.9551 53.9209 61.745 53.0957C62.6504 52.1374 63.15 50.8649 63.1389 49.5453C63.1411 49.4812 63.1681 49.4205 63.2141 49.376C63.2601 49.3314 63.3216 49.3065 63.3856 49.3065C63.4496 49.3065 63.5111 49.3314 63.5571 49.376C63.6032 49.4205 63.6301 49.4812 63.6323 49.5453Z" fill="#2F2E41"/>
<path d="M68.4507 52.6884C73.3125 52.6884 77.2537 48.7393 77.2537 43.8678C77.2537 38.9963 73.3125 35.0471 68.4507 35.0471C63.5889 35.0471 59.6477 38.9963 59.6477 43.8678C59.6477 48.7393 63.5889 52.6884 68.4507 52.6884Z" fill="#75AADC"/>
<path d="M68.0003 47.6315L67.9911 47.3019C68.6031 47.2848 69.1427 47.2463 69.5481 46.9496C69.6631 46.8606 69.7576 46.7479 69.8251 46.6192C69.8927 46.4904 69.9318 46.3485 69.9398 46.2032C69.9469 46.1145 69.9335 46.0252 69.9007 45.9425C69.8678 45.8598 69.8163 45.7857 69.7502 45.7262C69.4811 45.4984 69.048 45.5721 68.7324 45.7172L68.4602 45.8422L68.9821 42.0201L69.3081 42.0649L68.8641 45.3161C69.293 45.1897 69.6904 45.2441 69.9625 45.4745C70.0671 45.5659 70.1491 45.6803 70.2021 45.8087C70.2552 45.9371 70.2779 46.0761 70.2685 46.2148C70.2589 46.41 70.2069 46.6008 70.1159 46.7737C70.025 46.9466 69.8974 47.0975 69.7422 47.2158C69.2212 47.5972 68.5443 47.6162 68.0003 47.6315Z" fill="#2F2E41"/>
<path d="M72.6916 42.3452H70.9199V42.6748H72.6916V42.3452Z" fill="#2F2E41"/>
<path d="M67.0992 42.3452H65.3275V42.6748H67.0992V42.3452Z" fill="#2F2E41"/>
<path d="M63.5745 57.2321C64.2343 56.8126 64.9474 56.4838 65.6947 56.2547C65.6234 56.0008 65.6245 55.7318 65.698 55.4785C65.7971 55.1584 65.997 54.879 66.2676 54.6821C66.5383 54.4852 66.8652 54.3812 67.1997 54.3858H69.3445C69.6796 54.3815 70.007 54.4857 70.2782 54.6829C70.5494 54.88 70.7498 55.1596 70.8496 55.4801C70.9231 55.7329 70.9242 56.0013 70.8528 56.2547C71.6 56.4841 72.3131 56.8128 72.9731 57.2321H63.5745Z" fill="#2F2E41"/>
<path d="M78.5343 40.5942C78.3739 40.3996 78.1766 40.2388 77.9537 40.1212C77.7582 40.0189 77.541 39.9652 77.3204 39.9646C77.0175 39.9683 76.7234 40.0675 76.4799 40.2481C75.8104 40.7227 75.3466 41.7462 75.3466 42.9312C75.3466 44.4178 76.0769 45.6506 77.026 45.8649C77.1226 45.8866 77.2214 45.8977 77.3204 45.8979C78.4076 45.8979 79.2942 44.5678 79.2942 42.9312C79.2942 41.9819 78.9965 41.1364 78.5343 40.5942Z" fill="#3F3D56"/>
<path d="M60.4543 40.1772H60.4526C60.2327 40.0404 59.9795 39.9669 59.7207 39.9646C59.5001 39.9652 59.2829 40.0189 59.0874 40.1212C58.8645 40.2388 58.6672 40.3996 58.5068 40.5942L58.5051 40.5958C58.0446 41.1381 57.7469 41.9836 57.7469 42.9312C57.7469 44.2102 58.2863 45.3012 59.043 45.7182C59.2501 45.8345 59.4832 45.8963 59.7207 45.8979C59.7735 45.8979 59.8262 45.8946 59.8786 45.888H59.8802C60.8934 45.766 61.6945 44.4871 61.6945 42.9312C61.6945 41.6852 61.1797 40.6156 60.4543 40.1772Z" fill="#3F3D56"/>
<path d="M59.1663 45.4347C59.2055 45.4346 59.2441 45.4253 59.2789 45.4073C59.3138 45.3894 59.3439 45.3634 59.3667 45.3315C59.3895 45.2997 59.4045 45.2628 59.4103 45.224C59.4161 45.1852 59.4126 45.1455 59.4001 45.1083C58.9286 43.7033 58.7868 42.2082 58.9856 40.7393C59.1845 39.2703 59.7187 37.8672 60.5468 36.6387C61.3749 35.4103 62.4745 34.3898 63.7602 33.6565C65.0459 32.9231 66.483 32.4967 67.9599 32.4103C69.4368 32.324 70.9137 32.5801 72.2758 33.1586C73.6379 33.7372 74.8485 34.6227 75.8135 35.7462C76.7785 36.8698 77.472 38.2012 77.84 39.637C78.208 41.0728 78.2406 42.5743 77.9354 44.0247C77.9219 44.0889 77.9343 44.1558 77.9701 44.2107C78.0058 44.2657 78.0618 44.3041 78.1259 44.3177C78.1899 44.3312 78.2567 44.3187 78.3115 44.2829C78.3663 44.2471 78.4047 44.1909 78.4182 44.1268C78.7394 42.6018 78.7052 41.0231 78.3184 39.5135C77.9317 38.0039 77.2026 36.6039 76.1881 35.4225C75.1735 34.2411 73.9007 33.3101 72.4686 32.7018C71.0365 32.0935 69.4837 31.8242 67.9308 31.9151C66.378 32.0059 64.867 32.4543 63.5153 33.2254C62.1635 33.9965 61.0075 35.0696 60.137 36.3613C59.2664 37.6529 58.7049 39.1283 58.496 40.6728C58.2871 42.2173 58.4365 43.7892 58.9326 45.2664C58.9491 45.3154 58.9805 45.358 59.0224 45.3882C59.0644 45.4184 59.1147 45.4346 59.1663 45.4347Z" fill="#3F3D56"/>
<path d="M72.8729 38.1529C73.2215 38.6296 73.0496 39.2721 72.6824 39.6832C72.2045 40.2181 71.4424 40.2518 70.7806 40.1525C70.0381 40.0411 69.2505 39.6926 68.4988 39.9275C67.858 40.1277 67.401 40.71 66.7353 40.8563C66.145 40.986 65.4391 40.8143 65.2321 40.1838C65.1327 39.8808 65.609 39.751 65.7079 40.0524C65.8418 40.4602 66.4199 40.4521 66.751 40.3391C67.2818 40.1581 67.6908 39.7176 68.2125 39.5073C68.8276 39.2592 69.4949 39.3712 70.1211 39.5125C70.7113 39.6457 71.3905 39.8431 71.9785 39.5944C72.4136 39.4103 72.7598 38.8304 72.4468 38.4024C72.259 38.1455 72.6869 37.8985 72.8729 38.1529Z" fill="#2F2E41"/>
<path d="M107.222 68.4643H75.9203C75.7472 68.4643 75.5758 68.4301 75.4159 68.3637C75.2559 68.2974 75.1106 68.2001 74.9882 68.0774C74.8658 67.9548 74.7687 67.8092 74.7025 67.6489C74.6362 67.4887 74.6021 67.3169 74.6021 67.1435C74.6021 66.97 74.6362 66.7982 74.7025 66.638C74.7687 66.4777 74.8658 66.3321 74.9882 66.2095C75.1106 66.0868 75.2559 65.9895 75.4159 65.9232C75.5758 65.8568 75.7472 65.8226 75.9203 65.8226H107.222C107.571 65.823 107.906 65.9624 108.153 66.21C108.4 66.4577 108.539 66.7934 108.539 67.1435C108.539 67.4935 108.4 67.8292 108.153 68.0769C107.906 68.3246 107.571 68.4639 107.222 68.4643Z" fill="#E6E6E6"/>
<path d="M112.659 72.922H75.9203C75.7471 72.9222 75.5755 72.8882 75.4154 72.8219C75.2553 72.7556 75.1098 72.6584 74.9873 72.5357C74.8647 72.413 74.7675 72.2674 74.7011 72.107C74.6348 71.9467 74.6006 71.7748 74.6006 71.6012C74.6006 71.4276 74.6348 71.2558 74.7011 71.0954C74.7675 70.9351 74.8647 70.7894 74.9873 70.6667C75.1098 70.5441 75.2553 70.4468 75.4154 70.3805C75.5755 70.3142 75.7471 70.2802 75.9203 70.2804H112.659C112.833 70.2802 113.004 70.3142 113.164 70.3805C113.324 70.4468 113.47 70.5441 113.592 70.6667C113.715 70.7894 113.812 70.9351 113.879 71.0954C113.945 71.2558 113.979 71.4276 113.979 71.6012C113.979 71.7748 113.945 71.9467 113.879 72.107C113.812 72.2674 113.715 72.413 113.592 72.5357C113.47 72.6584 113.324 72.7556 113.164 72.8219C113.004 72.8882 112.833 72.9222 112.659 72.922Z" fill="#E6E6E6"/>
<path d="M107.222 84.4863H75.9203C75.5707 84.4863 75.2354 84.3471 74.9882 84.0994C74.741 83.8517 74.6021 83.5157 74.6021 83.1654C74.6021 82.8151 74.741 82.4792 74.9882 82.2315C75.2354 81.9838 75.5707 81.8446 75.9203 81.8446H107.222C107.571 81.8446 107.907 81.9838 108.154 82.2315C108.401 82.4792 108.54 82.8151 108.54 83.1654C108.54 83.5157 108.401 83.8517 108.154 84.0994C107.907 84.3471 107.571 84.4863 107.222 84.4863Z" fill="#E6E6E6"/>
<path d="M112.659 88.944H75.9203C75.5707 88.944 75.2354 88.8049 74.9882 88.5572C74.741 88.3095 74.6021 87.9735 74.6021 87.6232C74.6021 87.2729 74.741 86.9369 74.9882 86.6892C75.2354 86.4415 75.5707 86.3024 75.9203 86.3024H112.659C113.009 86.3024 113.344 86.4415 113.591 86.6892C113.839 86.9369 113.978 87.2729 113.978 87.6232C113.978 87.9735 113.839 88.3095 113.591 88.5572C113.344 88.8049 113.009 88.944 112.659 88.944Z" fill="#E6E6E6"/>
<path d="M63.5317 74.9263C66.6203 74.9263 69.1242 72.4174 69.1242 69.3226C69.1242 66.2278 66.6203 63.719 63.5317 63.719C60.4431 63.719 57.9393 66.2278 57.9393 69.3226C57.9393 72.4174 60.4431 74.9263 63.5317 74.9263Z" fill="#E6E6E6"/>
<path d="M63.5317 91.078C66.6203 91.078 69.1242 88.5692 69.1242 85.4744C69.1242 82.3796 66.6203 79.8707 63.5317 79.8707C60.4431 79.8707 57.9393 82.3796 57.9393 85.4744C57.9393 88.5692 60.4431 91.078 63.5317 91.078Z" fill="#E6E6E6"/>
<path d="M107.222 100.638H75.9203C75.5707 100.638 75.2354 100.499 74.9882 100.251C74.741 100.003 74.6021 99.6675 74.6021 99.3172C74.6021 98.9669 74.741 98.6309 74.9882 98.3832C75.2354 98.1355 75.5707 97.9963 75.9203 97.9963H107.222C107.571 97.9963 107.907 98.1355 108.154 98.3832C108.401 98.6309 108.54 98.9669 108.54 99.3172C108.54 99.6675 108.401 100.003 108.154 100.251C107.907 100.499 107.571 100.638 107.222 100.638Z" fill="#E6E6E6"/>
<path d="M112.659 105.096H75.9203C75.5707 105.096 75.2354 104.957 74.9882 104.709C74.741 104.461 74.6021 104.125 74.6021 103.775C74.6021 103.425 74.741 103.089 74.9882 102.841C75.2354 102.593 75.5707 102.454 75.9203 102.454H112.659C113.009 102.454 113.344 102.593 113.591 102.841C113.839 103.089 113.978 103.425 113.978 103.775C113.978 104.125 113.839 104.461 113.591 104.709C113.344 104.957 113.009 105.096 112.659 105.096Z" fill="#E6E6E6"/>
<path d="M63.5317 107.23C66.6203 107.23 69.1242 104.721 69.1242 101.626C69.1242 98.5313 66.6203 96.0225 63.5317 96.0225C60.4431 96.0225 57.9393 98.5313 57.9393 101.626C57.9393 104.721 60.4431 107.23 63.5317 107.23Z" fill="#E6E6E6"/>
</svg>
