<svg width="71" height="50" viewBox="0 0 71 50" fill="none" xmlns="http://www.w3.org/2000/svg">
<path d="M13.792 1.79199L14.126 1.77441C14.2256 1.77441 14.3369 1.81836 14.46 1.90625C14.5889 1.99414 14.6533 2.07031 14.6533 2.13477C14.624 2.26367 13.9326 3.44141 12.5791 5.66797C8.35449 12.6113 6.02832 16.5283 5.60059 17.4189C5.81738 17.1904 6.05469 16.9648 6.3125 16.7422C6.57617 16.5254 6.72266 16.417 6.75195 16.417C6.78711 16.417 6.82227 16.4346 6.85742 16.4697C6.89258 16.5107 6.91016 16.5488 6.91016 16.584C6.91016 16.625 6.88379 16.6748 6.83105 16.7334C6.77832 16.792 6.59375 17.0234 6.27734 17.4277C5.9668 17.8379 5.73535 18.1279 5.58301 18.2979C5.43066 18.4736 5.29297 18.6582 5.16992 18.8516C5.05273 19.0508 4.9502 19.1914 4.8623 19.2734C4.78027 19.3555 4.67773 19.3965 4.55469 19.3965C4.19727 19.3965 3.89551 19.2412 3.64941 18.9307C3.40918 18.626 3.28906 18.3682 3.28906 18.1572C3.28906 17.7471 4.15918 16.1475 5.89941 13.3584C7.64551 10.5693 9.18359 8.22852 10.5137 6.33594C7.4375 9.96875 4.98828 12.3535 3.16602 13.4902C2.5332 13.8887 2.01758 14.0879 1.61914 14.0879C1.42578 14.0879 1.23242 14.0322 1.03906 13.9209C0.851562 13.8096 0.713867 13.6689 0.625977 13.499C0.543945 13.3291 0.50293 13.0273 0.50293 12.5938C0.50293 12.1543 0.69043 11.5273 1.06543 10.7129C1.44043 9.89258 1.92383 9.0166 2.51562 8.08496C3.56445 6.4209 4.53125 4.99707 5.41602 3.81348C4.63086 4.52246 3.98926 4.87695 3.49121 4.87695C3.2627 4.87695 3.11035 4.84473 3.03418 4.78027C2.96387 4.70996 2.86426 4.60449 2.73535 4.46387C2.6123 4.31738 2.55078 4.15918 2.55078 3.98926C2.55078 3.81348 2.58008 3.67578 2.63867 3.57617C2.70312 3.47656 2.76172 3.40039 2.81445 3.34766C3.01367 3.14844 3.14258 3.03125 3.20117 2.99609C3.25977 2.96094 3.33008 2.94336 3.41211 2.94336C3.5 2.94336 3.54395 2.95801 3.54395 2.9873C3.54395 3.01074 3.51172 3.04883 3.44727 3.10156C3.38867 3.1543 3.35937 3.19531 3.35937 3.22461C3.35937 3.25391 3.3916 3.26855 3.45605 3.26855C3.52051 3.26855 3.60254 3.25391 3.70215 3.22461C3.80176 3.18945 3.93066 3.13086 4.08887 3.04883C4.25293 2.96094 4.39941 2.88184 4.52832 2.81152C4.66309 2.73535 4.8623 2.62109 5.12598 2.46875C5.38965 2.31055 5.58887 2.19336 5.72363 2.11719C5.86426 2.04102 6.06641 1.90625 6.33008 1.71289C6.59961 1.51367 6.79883 1.37891 6.92773 1.30859C7.14453 1.17969 7.32031 1.1416 7.45508 1.19434C7.5957 1.24707 7.7041 1.28223 7.78027 1.2998C7.8623 1.31738 7.93262 1.34375 7.99121 1.37891C8.05566 1.4082 8.11426 1.44336 8.16699 1.48438C8.34863 1.61328 8.43945 1.76562 8.43945 1.94141C8.43945 2.11133 8.35449 2.31055 8.18457 2.53906C8.02051 2.76758 7.64844 3.30957 7.06836 4.16504C6.48828 5.01465 5.83203 5.99316 5.09961 7.10059C4.37305 8.20215 3.73145 9.23633 3.1748 10.2031C2.62402 11.1699 2.34863 11.7793 2.34863 12.0312C2.34863 12.1191 2.37207 12.1631 2.41895 12.1631C2.46582 12.1631 2.63867 12.0488 2.9375 11.8203C4.50781 10.6074 6.50879 8.70605 8.94043 6.11621C10.9385 3.98926 12.1162 2.67383 12.4736 2.16992C12.585 2.01758 12.6934 1.91504 12.7988 1.8623C12.9102 1.80957 13.0771 1.7832 13.2998 1.7832L13.792 1.79199ZM17.4834 7.30273C17.6592 7.30273 17.8379 7.38184 18.0195 7.54004C18.207 7.69824 18.3008 7.94141 18.3008 8.26953C18.3008 8.5918 18.1865 9.01367 17.958 9.53516C17.7295 10.0508 17.416 10.5781 17.0176 11.1172C16.6191 11.6504 16.1797 12.1543 15.6992 12.6289C15.2246 13.0977 14.709 13.4844 14.1523 13.7891C13.6016 14.0879 13.1006 14.2373 12.6494 14.2373C12.1982 14.2373 11.835 14.0967 11.5596 13.8154C11.29 13.5283 11.1553 13.1328 11.1553 12.6289C11.1553 12.1191 11.2783 11.5566 11.5244 10.9414C11.7764 10.3262 12.0986 9.78418 12.4912 9.31543C12.8838 8.84082 13.3086 8.41602 13.7656 8.04102C14.7207 7.27344 15.5586 6.88965 16.2793 6.88965C16.6016 6.88965 16.8447 6.96875 17.0088 7.12695C17.0674 7.17969 17.0967 7.22656 17.0967 7.26758V7.32031C17.1787 7.30859 17.3076 7.30273 17.4834 7.30273ZM16.5957 8.47168H16.5342C16.3291 8.47168 16.2266 8.32227 16.2266 8.02344C15.7988 8.16406 15.3506 8.41016 14.8818 8.76172C14.4131 9.11328 13.9941 9.5293 13.625 10.0098C12.875 10.9707 12.4941 11.7822 12.4824 12.4443C12.4824 12.7725 12.6025 12.9365 12.8428 12.9365C13.083 12.9365 13.4404 12.7783 13.915 12.4619C14.3896 12.1455 14.8584 11.6943 15.3213 11.1084C15.79 10.5225 16.1387 10.0156 16.3672 9.58789C16.6016 9.1543 16.7188 8.86133 16.7188 8.70898C16.7188 8.55078 16.6777 8.47168 16.5957 8.47168ZM22.6953 12.6465C22.6953 12.9043 22.8711 13.0332 23.2227 13.0332C23.4102 13.0332 23.6445 12.9395 23.9258 12.752C24.2129 12.5645 24.4707 12.3594 24.6992 12.1367C25.3086 11.5332 25.6543 11.2314 25.7363 11.2314C25.8887 11.2314 25.9648 11.4512 25.9648 11.8906C25.9648 12.3301 25.8271 12.6318 25.5518 12.7959C24.7139 13.5518 24.0664 14.0117 23.6094 14.1758C23.3516 14.2637 23.0674 14.3047 22.7568 14.2988C22.4463 14.293 22.1387 14.1582 21.834 13.8945C21.5293 13.6309 21.377 13.3115 21.377 12.9365C21.377 12.5557 21.4766 12.125 21.6758 11.6445C21.875 11.1641 22.0771 10.7539 22.2822 10.4141C22.4932 10.0684 22.751 9.66992 23.0557 9.21875C23.3604 8.76172 23.5215 8.47754 23.5391 8.36621L23.5215 8.34863C23.3281 8.36621 22.8477 8.74707 22.0801 9.49121C21.3184 10.2354 20.6885 10.8828 20.1904 11.4336C19.6924 11.9844 19.0977 12.7197 18.4062 13.6396C18.2129 13.8916 18.0547 14.0176 17.9316 14.0176C17.8086 14.0176 17.6445 13.9795 17.4395 13.9033C17.2285 13.8213 17.0996 13.7627 17.0527 13.7275C17.0059 13.6924 16.9824 13.6396 16.9824 13.5693C16.9824 13.499 17.0029 13.4141 17.0439 13.3145C17.085 13.209 17.126 13.124 17.167 13.0596C17.2021 12.9893 17.2637 12.8838 17.3516 12.7432C17.4395 12.6025 17.6123 12.3066 17.8701 11.8555C18.1338 11.3984 18.5352 10.7188 19.0742 9.81641C19.6133 8.91406 19.9355 8.36914 20.041 8.18164C20.2637 7.79492 20.4453 7.51367 20.5859 7.33789C20.8496 7.00391 21.2949 6.83691 21.9219 6.83691C22.0625 6.83691 22.1328 6.9248 22.1328 7.10059C22.1328 7.37598 21.8779 7.89453 21.3682 8.65625L20.999 9.20996C22.0127 8.08496 22.8682 7.37305 23.5654 7.07422C23.9053 6.92773 24.21 6.85449 24.4795 6.85449C24.7549 6.85449 24.9717 6.92773 25.1299 7.07422C25.2939 7.2207 25.376 7.38477 25.376 7.56641C25.376 7.74219 25.3145 7.95605 25.1914 8.20801C25.0684 8.4541 24.9424 8.67676 24.8135 8.87598C24.6904 9.06934 24.5264 9.31543 24.3213 9.61426C24.1162 9.91309 24.0049 10.0771 23.9873 10.1064C23.9697 10.1299 23.9229 10.2002 23.8467 10.3174C23.7764 10.4287 23.7236 10.5107 23.6885 10.5635C23.6533 10.6162 23.5947 10.71 23.5127 10.8447C23.4307 10.9736 23.3633 11.082 23.3105 11.1699C23.2637 11.2578 23.2021 11.3662 23.126 11.4951C23.0557 11.624 22.9971 11.7354 22.9502 11.8291C22.9092 11.9229 22.8652 12.0254 22.8184 12.1367C22.7363 12.3418 22.6953 12.5117 22.6953 12.6465ZM31.8447 7.32031C32.29 7.32031 32.5127 7.47266 32.5127 7.77734C32.5127 7.94141 32.4746 8.06152 32.3984 8.1377C32.3223 8.21387 32.1582 8.46875 31.9062 8.90234C31.6602 9.33008 31.3848 9.88086 31.0801 10.5547C30.7812 11.2227 30.5879 11.7939 30.5 12.2686C30.4824 12.3271 30.4736 12.4092 30.4736 12.5146C30.4736 12.8369 30.5615 12.998 30.7373 12.998C30.9131 12.998 31.1211 12.916 31.3613 12.752C31.6016 12.582 31.8154 12.4033 32.0029 12.2158C32.1904 12.0225 32.3721 11.8262 32.5479 11.627C32.7295 11.4277 32.8379 11.3135 32.873 11.2842C32.9082 11.2549 32.9609 11.2402 33.0312 11.2402C33.1426 11.2402 33.21 11.3252 33.2334 11.4951C33.2568 11.665 33.2686 11.8408 33.2686 12.0225C33.2686 12.2041 33.251 12.3301 33.2158 12.4004C33.0459 12.7344 32.6709 13.1357 32.0908 13.6045C31.5166 14.0732 30.9922 14.3076 30.5176 14.3076C30.0488 14.3076 29.7031 14.1641 29.4805 13.877C29.2578 13.5898 29.1465 13.2734 29.1465 12.9277C29.1465 12.5762 29.2051 12.2686 29.3223 12.0049C28.8359 12.6377 28.2764 13.1738 27.6436 13.6133C27.0166 14.0527 26.5039 14.2725 26.1055 14.2725C25.707 14.2725 25.3818 14.1523 25.1299 13.9121C24.8076 13.6133 24.6465 13.2002 24.6465 12.6729C24.6465 12.1396 24.7637 11.6064 24.998 11.0732C25.2383 10.5342 25.5518 10.0449 25.9385 9.60547C26.3252 9.16016 26.75 8.75586 27.2129 8.39258C28.1855 7.63086 29.082 7.25 29.9023 7.25C30.2188 7.25 30.4766 7.30273 30.6758 7.4082C30.875 7.51367 31.001 7.64551 31.0537 7.80371C31.1943 7.59277 31.3115 7.46094 31.4053 7.4082C31.5049 7.34961 31.6514 7.32031 31.8447 7.32031ZM30.6758 8.2959C29.6738 8.2959 28.6367 8.85254 27.5645 9.96582C27.1836 10.3643 26.832 10.8418 26.5098 11.3984C26.1934 11.9551 26.0352 12.3359 26.0352 12.541C26.0352 12.7461 26.0938 12.8486 26.2109 12.8486C26.375 12.8486 26.832 12.5264 27.582 11.8818C28.332 11.2314 28.8301 10.7539 29.0762 10.4492C29.3457 10.1094 29.8789 9.3916 30.6758 8.2959ZM38.5156 2.67969L38.876 2.76758C38.9287 2.76758 38.9756 2.79395 39.0166 2.84668C39.0576 2.89941 39.0781 2.94922 39.0781 2.99609C39.0781 3.04297 39.0166 3.16895 38.8936 3.37402C38.7705 3.5791 38.624 3.81348 38.4541 4.07715C38.29 4.33496 38.2021 4.47559 38.1904 4.49902C38.6475 4.46387 38.9697 4.44629 39.1572 4.44629C39.3506 4.44629 39.4824 4.46094 39.5527 4.49023C39.623 4.51367 39.7021 4.58691 39.79 4.70996C39.8838 4.82715 39.9688 4.91797 40.0449 4.98242C40.1211 5.04102 40.1592 5.13184 40.1592 5.25488C40.1592 5.37793 40.083 5.4834 39.9307 5.57129C39.7842 5.65332 39.626 5.70313 39.4561 5.7207C38.0967 5.85547 37.3467 5.92578 37.2061 5.93164C36.7314 6.6582 36.0664 7.79199 35.2109 9.33301C34.3613 10.8682 33.9102 11.8291 33.8574 12.2158C33.834 12.3916 33.8223 12.5352 33.8223 12.6465C33.8223 12.875 33.9424 12.9893 34.1826 12.9893C34.4229 12.9893 34.6895 12.8984 34.9824 12.7168C35.2754 12.5293 35.5449 12.3271 35.791 12.1104C36.4473 11.5244 36.7988 11.2314 36.8457 11.2314C36.998 11.2314 37.0742 11.4951 37.0742 12.0225C37.0742 12.3096 36.9424 12.5674 36.6787 12.7959C36.0869 13.3057 35.5889 13.6895 35.1846 13.9473C34.7803 14.2051 34.376 14.334 33.9717 14.334C33.8838 14.334 33.8018 14.3252 33.7256 14.3076C33.2568 14.2197 32.9111 14.0498 32.6885 13.7979C32.4717 13.54 32.3633 13.1943 32.3633 12.7607C32.3691 12.3271 32.498 11.8027 32.75 11.1875C33.0078 10.5664 33.3301 9.90723 33.7168 9.20996C34.3496 8.07324 34.9824 7.00684 35.6152 6.01074L35.2812 6.05469C34.6016 6.13086 34.2061 6.16895 34.0947 6.16895H34.0156C33.8457 6.16895 33.6816 6.13672 33.5234 6.07227C33.3652 6.00195 33.2861 5.91699 33.2861 5.81738C33.2861 5.71777 33.3271 5.62109 33.4092 5.52734C33.4971 5.43359 33.5498 5.36035 33.5674 5.30762C33.6084 5.17871 33.7607 5.03516 34.0244 4.87695C34.2939 4.71875 34.4961 4.63672 34.6309 4.63086C34.7656 4.61914 34.8945 4.61035 35.0176 4.60449C35.1465 4.59863 35.2871 4.59277 35.4395 4.58691C35.5977 4.58105 35.7178 4.5752 35.7998 4.56934L36.5908 4.53418C37.083 3.7959 37.4199 3.32129 37.6016 3.11035C37.7891 2.89941 37.8975 2.78516 37.9268 2.76758C37.9561 2.74414 38.0146 2.73242 38.1025 2.73242L38.5156 2.67969ZM44.0703 11.4072C44.1113 11.6768 44.1318 11.8906 44.1318 12.0488C44.1318 12.2012 44.1025 12.3359 44.0439 12.4531C43.9912 12.5645 43.8682 12.7256 43.6748 12.9365C43.4873 13.1416 43.2617 13.3496 42.998 13.5605C42.3535 14.0703 41.6943 14.3252 41.0205 14.3252C40.0537 14.3252 39.5703 13.8975 39.5703 13.042C39.5703 12.2979 40.2178 10.8154 41.5127 8.59473C41.5596 8.5127 41.5918 8.4541 41.6094 8.41895C41.1582 8.73535 40.2939 9.59961 39.0166 11.0117C37.7451 12.418 36.8984 13.4141 36.4766 14C36.4414 14.0527 36.3535 14.1113 36.2129 14.1758C36.0723 14.2402 35.9609 14.2725 35.8789 14.2725C35.8027 14.2725 35.7207 14.2461 35.6328 14.1934C35.5391 14.1465 35.4805 14.123 35.457 14.123C35.3809 14.123 35.3428 14.0967 35.3428 14.0439C35.3428 13.9971 35.4482 13.7305 35.6592 13.2441C35.8643 12.752 36.1367 12.1426 36.4766 11.416C37.4082 9.41211 38.7939 6.80469 40.6338 3.59375C41.2783 2.46875 41.7822 1.67188 42.1455 1.20313C42.4033 0.869141 42.8369 0.702148 43.4463 0.702148C43.5752 0.702148 43.6484 0.740234 43.666 0.816406C43.6836 0.892578 43.6924 0.974609 43.6924 1.0625C43.6924 1.15039 43.6748 1.23828 43.6396 1.32617L42.6992 2.79395C40.8359 5.7002 39.4326 8.1084 38.4893 10.0186C39.4033 8.90527 40.291 8.04688 41.1523 7.44336C41.6855 7.0625 42.084 6.87207 42.3477 6.87207C42.6172 6.87207 42.8604 6.91602 43.0771 7.00391C43.2939 7.08594 43.4023 7.28809 43.4023 7.61035C43.4023 7.72754 43.2119 8.16113 42.8311 8.91113C41.6885 11.1611 41.1172 12.4121 41.1172 12.6641C41.1172 12.9102 41.2197 13.0332 41.4248 13.0332C41.7236 13.0332 42.1836 12.7432 42.8047 12.1631C43.2734 11.7236 43.5693 11.4424 43.6924 11.3193C43.7627 11.2666 43.8271 11.2402 43.8857 11.2402C43.9971 11.2402 44.0586 11.2959 44.0703 11.4072ZM50.126 7.32031C50.5713 7.32031 50.7939 7.47266 50.7939 7.77734C50.7939 7.94141 50.7559 8.06152 50.6797 8.1377C50.6035 8.21387 50.4395 8.46875 50.1875 8.90234C49.9414 9.33008 49.666 9.88086 49.3613 10.5547C49.0625 11.2227 48.8691 11.7939 48.7812 12.2686C48.7637 12.3271 48.7549 12.4092 48.7549 12.5146C48.7549 12.8369 48.8428 12.998 49.0186 12.998C49.1943 12.998 49.4023 12.916 49.6426 12.752C49.8828 12.582 50.0967 12.4033 50.2842 12.2158C50.4717 12.0225 50.6533 11.8262 50.8291 11.627C51.0107 11.4277 51.1191 11.3135 51.1543 11.2842C51.1895 11.2549 51.2422 11.2402 51.3125 11.2402C51.4238 11.2402 51.4912 11.3252 51.5146 11.4951C51.5381 11.665 51.5498 11.8408 51.5498 12.0225C51.5498 12.2041 51.5322 12.3301 51.4971 12.4004C51.3271 12.7344 50.9521 13.1357 50.3721 13.6045C49.7979 14.0732 49.2734 14.3076 48.7988 14.3076C48.3301 14.3076 47.9844 14.1641 47.7617 13.877C47.5391 13.5898 47.4277 13.2734 47.4277 12.9277C47.4277 12.5762 47.4863 12.2686 47.6035 12.0049C47.1172 12.6377 46.5576 13.1738 45.9248 13.6133C45.2979 14.0527 44.7852 14.2725 44.3867 14.2725C43.9883 14.2725 43.6631 14.1523 43.4111 13.9121C43.0889 13.6133 42.9277 13.2002 42.9277 12.6729C42.9277 12.1396 43.0449 11.6064 43.2793 11.0732C43.5195 10.5342 43.833 10.0449 44.2197 9.60547C44.6064 9.16016 45.0312 8.75586 45.4941 8.39258C46.4668 7.63086 47.3633 7.25 48.1836 7.25C48.5 7.25 48.7578 7.30273 48.957 7.4082C49.1562 7.51367 49.2822 7.64551 49.335 7.80371C49.4756 7.59277 49.5928 7.46094 49.6865 7.4082C49.7861 7.34961 49.9326 7.32031 50.126 7.32031ZM48.957 8.2959C47.9551 8.2959 46.918 8.85254 45.8457 9.96582C45.4648 10.3643 45.1133 10.8418 44.791 11.3984C44.4746 11.9551 44.3164 12.3359 44.3164 12.541C44.3164 12.7461 44.375 12.8486 44.4922 12.8486C44.6562 12.8486 45.1133 12.5264 45.8633 11.8818C46.6133 11.2314 47.1113 10.7539 47.3574 10.4492C47.627 10.1094 48.1602 9.3916 48.957 8.2959ZM55.3379 12.6465C55.3379 12.9043 55.5137 13.0332 55.8652 13.0332C56.0527 13.0332 56.2871 12.9395 56.5684 12.752C56.8555 12.5645 57.1133 12.3594 57.3418 12.1367C57.9512 11.5332 58.2969 11.2314 58.3789 11.2314C58.5312 11.2314 58.6074 11.4512 58.6074 11.8906C58.6074 12.3301 58.4697 12.6318 58.1943 12.7959C57.3564 13.5518 56.709 14.0117 56.252 14.1758C55.9941 14.2637 55.71 14.3047 55.3994 14.2988C55.0889 14.293 54.7812 14.1582 54.4766 13.8945C54.1719 13.6309 54.0195 13.3115 54.0195 12.9365C54.0195 12.5557 54.1191 12.125 54.3184 11.6445C54.5176 11.1641 54.7197 10.7539 54.9248 10.4141C55.1357 10.0684 55.3936 9.66992 55.6982 9.21875C56.0029 8.76172 56.1641 8.47754 56.1816 8.36621L56.1641 8.34863C55.9707 8.36621 55.4902 8.74707 54.7227 9.49121C53.9609 10.2354 53.3311 10.8828 52.833 11.4336C52.335 11.9844 51.7402 12.7197 51.0488 13.6396C50.8555 13.8916 50.6973 14.0176 50.5742 14.0176C50.4512 14.0176 50.2871 13.9795 50.082 13.9033C49.8711 13.8213 49.7422 13.7627 49.6953 13.7275C49.6484 13.6924 49.625 13.6396 49.625 13.5693C49.625 13.499 49.6455 13.4141 49.6865 13.3145C49.7275 13.209 49.7686 13.124 49.8096 13.0596C49.8447 12.9893 49.9062 12.8838 49.9941 12.7432C50.082 12.6025 50.2549 12.3066 50.5127 11.8555C50.7764 11.3984 51.1777 10.7188 51.7168 9.81641C52.2559 8.91406 52.5781 8.36914 52.6836 8.18164C52.9062 7.79492 53.0879 7.51367 53.2285 7.33789C53.4922 7.00391 53.9375 6.83691 54.5645 6.83691C54.7051 6.83691 54.7754 6.9248 54.7754 7.10059C54.7754 7.37598 54.5205 7.89453 54.0107 8.65625L53.6416 9.20996C54.6553 8.08496 55.5107 7.37305 56.208 7.07422C56.5479 6.92773 56.8525 6.85449 57.1221 6.85449C57.3975 6.85449 57.6143 6.92773 57.7725 7.07422C57.9365 7.2207 58.0186 7.38477 58.0186 7.56641C58.0186 7.74219 57.957 7.95605 57.834 8.20801C57.7109 8.4541 57.585 8.67676 57.4561 8.87598C57.333 9.06934 57.1689 9.31543 56.9639 9.61426C56.7588 9.91309 56.6475 10.0771 56.6299 10.1064C56.6123 10.1299 56.5654 10.2002 56.4893 10.3174C56.4189 10.4287 56.3662 10.5107 56.3311 10.5635C56.2959 10.6162 56.2373 10.71 56.1553 10.8447C56.0732 10.9736 56.0059 11.082 55.9531 11.1699C55.9062 11.2578 55.8447 11.3662 55.7686 11.4951C55.6982 11.624 55.6396 11.7354 55.5928 11.8291C55.5518 11.9229 55.5078 12.0254 55.4609 12.1367C55.3789 12.3418 55.3379 12.5117 55.3379 12.6465ZM27.8984 38.876C28.0391 38.876 28.1094 38.9902 28.1094 39.2188C28.1094 39.4414 28.0596 39.8281 27.96 40.3789C27.8838 40.748 27.4619 41.2754 26.6943 41.9609C25.7686 42.7812 24.752 43.3672 23.6445 43.7188C22.9766 43.9297 22.3232 44.0352 21.6846 44.0352C21.0518 44.0352 20.4717 43.7686 19.9443 43.2354C19.4229 42.6963 19.1621 42.0605 19.1621 41.3281C19.1621 40.5898 19.3086 39.8281 19.6016 39.043C19.9004 38.252 20.2988 37.499 20.7969 36.7842C21.3008 36.0635 21.8926 35.3721 22.5723 34.71C23.2578 34.0479 23.9697 33.4736 24.708 32.9873C25.4463 32.501 26.2197 32.1143 27.0283 31.8271C27.8369 31.54 28.6045 31.3965 29.3311 31.3965C29.9053 31.3965 30.3945 31.6045 30.7988 32.0205C31.0098 32.2432 31.1152 32.5244 31.1152 32.8643C31.1152 33.1982 30.9512 33.623 30.623 34.1387C30.2949 34.6484 29.9053 35.1143 29.4541 35.5361C29.0088 35.958 28.5459 36.3154 28.0654 36.6084C27.5908 36.9014 27.21 37.0479 26.9229 37.0479C26.6357 37.0479 26.3896 36.96 26.1846 36.7842C25.9795 36.6025 25.877 36.4414 25.877 36.3008C25.877 36.1602 25.9062 36.0049 25.9648 35.835C26.0293 35.665 26.1084 35.5801 26.2021 35.5801C26.1787 35.6094 26.167 35.6387 26.167 35.668C26.167 35.7383 26.2666 35.7734 26.4658 35.7734C26.6709 35.7734 27.0107 35.5947 27.4854 35.2373C27.96 34.8799 28.3877 34.4785 28.7686 34.0332C29.1553 33.5879 29.3486 33.2539 29.3486 33.0312C29.3486 32.8789 29.2461 32.8027 29.041 32.8027C28.4902 32.8027 27.7285 33.0605 26.7559 33.5762C25.7891 34.0859 24.8633 34.7451 23.9785 35.5537C23.0937 36.3623 22.3232 37.3232 21.667 38.4365C21.0166 39.5439 20.6914 40.54 20.6914 41.4248C20.6914 41.7939 20.7881 42.0898 20.9814 42.3125C21.1807 42.5352 21.4824 42.6465 21.8867 42.6465C22.2969 42.6465 22.7803 42.5293 23.3369 42.2949C23.8936 42.0605 24.4209 41.7734 24.9189 41.4336C25.4229 41.0938 25.8975 40.7451 26.3428 40.3877C26.7881 40.0303 27.1426 39.7168 27.4062 39.4473C27.6758 39.1777 27.8135 39.0166 27.8193 38.9639C27.8252 38.9053 27.8516 38.876 27.8984 38.876ZM35.2021 37.3203C35.6475 37.3203 35.8701 37.4727 35.8701 37.7773C35.8701 37.9414 35.832 38.0615 35.7559 38.1377C35.6797 38.2139 35.5156 38.4688 35.2637 38.9023C35.0176 39.3301 34.7422 39.8809 34.4375 40.5547C34.1387 41.2227 33.9453 41.7939 33.8574 42.2686C33.8398 42.3271 33.8311 42.4092 33.8311 42.5146C33.8311 42.8369 33.9189 42.998 34.0947 42.998C34.2705 42.998 34.4785 42.916 34.7188 42.752C34.959 42.582 35.1729 42.4033 35.3604 42.2158C35.5479 42.0225 35.7295 41.8262 35.9053 41.627C36.0869 41.4277 36.1953 41.3135 36.2305 41.2842C36.2656 41.2549 36.3184 41.2402 36.3887 41.2402C36.5 41.2402 36.5674 41.3252 36.5908 41.4951C36.6143 41.665 36.626 41.8408 36.626 42.0225C36.626 42.2041 36.6084 42.3301 36.5732 42.4004C36.4033 42.7344 36.0283 43.1357 35.4482 43.6045C34.874 44.0732 34.3496 44.3076 33.875 44.3076C33.4062 44.3076 33.0605 44.1641 32.8379 43.877C32.6152 43.5898 32.5039 43.2734 32.5039 42.9277C32.5039 42.5762 32.5625 42.2686 32.6797 42.0049C32.1934 42.6377 31.6338 43.1738 31.001 43.6133C30.374 44.0527 29.8613 44.2725 29.4629 44.2725C29.0645 44.2725 28.7393 44.1523 28.4873 43.9121C28.165 43.6133 28.0039 43.2002 28.0039 42.6729C28.0039 42.1396 28.1211 41.6064 28.3555 41.0732C28.5957 40.5342 28.9092 40.0449 29.2959 39.6055C29.6826 39.1602 30.1074 38.7559 30.5703 38.3926C31.543 37.6309 32.4395 37.25 33.2598 37.25C33.5762 37.25 33.834 37.3027 34.0332 37.4082C34.2324 37.5137 34.3584 37.6455 34.4111 37.8037C34.5518 37.5928 34.6689 37.4609 34.7627 37.4082C34.8623 37.3496 35.0088 37.3203 35.2021 37.3203ZM34.0332 38.2959C33.0312 38.2959 31.9941 38.8525 30.9219 39.9658C30.541 40.3643 30.1895 40.8418 29.8672 41.3984C29.5508 41.9551 29.3926 42.3359 29.3926 42.541C29.3926 42.7461 29.4512 42.8486 29.5684 42.8486C29.7324 42.8486 30.1895 42.5264 30.9395 41.8818C31.6895 41.2314 32.1875 40.7539 32.4336 40.4492C32.7031 40.1094 33.2363 39.3916 34.0332 38.2959ZM43.5605 41.4072C43.6016 41.6768 43.6221 41.8906 43.6221 42.0488C43.6221 42.2012 43.5928 42.3359 43.5342 42.4531C43.4814 42.5645 43.3584 42.7256 43.165 42.9365C42.9775 43.1416 42.752 43.3496 42.4883 43.5605C41.8438 44.0703 41.1846 44.3252 40.5107 44.3252C39.5439 44.3252 39.0605 43.8975 39.0605 43.042C39.0605 42.2979 39.708 40.8154 41.0029 38.5947C41.0498 38.5127 41.082 38.4541 41.0996 38.4189C40.6484 38.7354 39.7842 39.5996 38.5068 41.0117C37.2354 42.418 36.3887 43.4141 35.9668 44C35.9316 44.0527 35.8438 44.1113 35.7031 44.1758C35.5625 44.2402 35.4512 44.2725 35.3691 44.2725C35.293 44.2725 35.2109 44.2461 35.123 44.1934C35.0293 44.1465 34.9707 44.123 34.9473 44.123C34.8711 44.123 34.833 44.0967 34.833 44.0439C34.833 43.9971 34.9385 43.7305 35.1494 43.2441C35.3545 42.752 35.627 42.1426 35.9668 41.416C36.8984 39.4121 38.2842 36.8047 40.124 33.5938C40.7686 32.4688 41.2725 31.6719 41.6357 31.2031C41.8936 30.8691 42.3271 30.7021 42.9365 30.7021C43.0654 30.7021 43.1387 30.7402 43.1562 30.8164C43.1738 30.8926 43.1826 30.9746 43.1826 31.0625C43.1826 31.1504 43.165 31.2383 43.1299 31.3262L42.1895 32.7939C40.3262 35.7002 38.9229 38.1084 37.9795 40.0186C38.8936 38.9053 39.7812 38.0469 40.6426 37.4434C41.1758 37.0625 41.5742 36.8721 41.8379 36.8721C42.1074 36.8721 42.3506 36.916 42.5674 37.0039C42.7842 37.0859 42.8926 37.2881 42.8926 37.6104C42.8926 37.7275 42.7021 38.1611 42.3213 38.9111C41.1787 41.1611 40.6074 42.4121 40.6074 42.6641C40.6074 42.9102 40.71 43.0332 40.915 43.0332C41.2139 43.0332 41.6738 42.7432 42.2949 42.1631C42.7637 41.7236 43.0596 41.4424 43.1826 41.3193C43.2529 41.2666 43.3174 41.2402 43.376 41.2402C43.4873 41.2402 43.5488 41.2959 43.5605 41.4072ZM45.5732 46.918C45.5439 46.9473 45.4531 47.0938 45.3008 47.3574C45.1543 47.627 44.9961 47.8965 44.8262 48.166C44.6562 48.4414 44.4453 48.7021 44.1934 48.9482C43.9473 49.1943 43.7393 49.3262 43.5693 49.3438C43.4053 49.3672 43.2998 49.3789 43.2529 49.3789C42.7139 49.3789 42.4443 49.1064 42.4443 48.5615C42.4443 47.9229 42.7754 47.1758 43.4375 46.3203C43.6895 45.998 44.0059 45.6494 44.3867 45.2744C44.7676 44.9053 44.9756 44.6943 45.0107 44.6416C45.0459 44.5947 45.4854 43.7744 46.3291 42.1807C45.7666 42.7959 45.2451 43.2969 44.7646 43.6836C44.2842 44.0645 43.8213 44.2783 43.376 44.3252H43.3145C43.0859 44.3252 42.8604 44.249 42.6377 44.0967C42.415 43.9502 42.3037 43.6895 42.3037 43.3145C42.3037 42.7578 42.4531 42.2188 42.752 41.6973C42.8574 41.5156 43.0391 41.208 43.2969 40.7744C43.5605 40.3408 43.8037 39.9219 44.0264 39.5176C44.2373 39.1953 44.4541 38.8203 44.6768 38.3926C44.8994 37.9648 45.0693 37.6602 45.1865 37.4785C45.3037 37.291 45.415 37.1973 45.5205 37.1973C45.626 37.1973 45.7607 37.2646 45.9248 37.3994C46.0947 37.5283 46.1797 37.6836 46.1797 37.8652C46.1797 38.0469 45.7959 38.835 45.0283 40.2295C44.2607 41.624 43.877 42.418 43.877 42.6113C43.877 42.6582 43.9004 42.6816 43.9473 42.6816C44.1055 42.6816 44.4541 42.459 44.9932 42.0137C45.5381 41.5625 46.1387 40.9854 46.7949 40.2822C47.5273 39.5029 48.1016 38.791 48.5176 38.1465C48.5703 38.0645 48.6113 38.0029 48.6406 37.9619C48.6758 37.915 48.7168 37.8564 48.7637 37.7861C48.8164 37.71 48.8574 37.6514 48.8867 37.6104C48.9219 37.5693 48.96 37.5225 49.001 37.4697C49.0479 37.4111 49.0889 37.3672 49.124 37.3379C49.1592 37.3086 49.1973 37.2793 49.2383 37.25C49.3027 37.1914 49.373 37.1621 49.4492 37.1621C49.5312 37.1621 49.6514 37.1797 49.8096 37.2148C49.9736 37.25 50.0703 37.2881 50.0996 37.3291C50.1348 37.3701 50.1699 37.4082 50.2051 37.4434C50.2637 37.5078 50.293 37.5693 50.293 37.6279C50.293 37.6807 50.2695 37.7539 50.2227 37.8477C50.1758 37.9355 49.9033 38.3984 49.4053 39.2363C47.9404 41.709 46.9326 43.5137 46.3818 44.6504C47.2725 43.9004 48.5264 42.79 50.1436 41.3193C50.208 41.2666 50.2725 41.2402 50.3369 41.2402C50.5186 41.2402 50.6094 41.5186 50.6094 42.0752C50.6094 42.2393 50.5801 42.3477 50.5215 42.4004C48.7695 43.748 47.1201 45.2539 45.5732 46.918ZM56.6475 37.3203C57.0928 37.3203 57.3154 37.4727 57.3154 37.7773C57.3154 37.9414 57.2773 38.0615 57.2012 38.1377C57.125 38.2139 56.9609 38.4688 56.709 38.9023C56.4629 39.3301 56.1875 39.8809 55.8828 40.5547C55.584 41.2227 55.3906 41.7939 55.3027 42.2686C55.2852 42.3271 55.2764 42.4092 55.2764 42.5146C55.2764 42.8369 55.3643 42.998 55.54 42.998C55.7158 42.998 55.9238 42.916 56.1641 42.752C56.4043 42.582 56.6182 42.4033 56.8057 42.2158C56.9932 42.0225 57.1748 41.8262 57.3506 41.627C57.5322 41.4277 57.6406 41.3135 57.6758 41.2842C57.7109 41.2549 57.7637 41.2402 57.834 41.2402C57.9453 41.2402 58.0127 41.3252 58.0361 41.4951C58.0596 41.665 58.0713 41.8408 58.0713 42.0225C58.0713 42.2041 58.0537 42.3301 58.0186 42.4004C57.8486 42.7344 57.4736 43.1357 56.8936 43.6045C56.3193 44.0732 55.7949 44.3076 55.3203 44.3076C54.8516 44.3076 54.5059 44.1641 54.2832 43.877C54.0605 43.5898 53.9492 43.2734 53.9492 42.9277C53.9492 42.5762 54.0078 42.2686 54.125 42.0049C53.6387 42.6377 53.0791 43.1738 52.4463 43.6133C51.8193 44.0527 51.3066 44.2725 50.9082 44.2725C50.5098 44.2725 50.1846 44.1523 49.9326 43.9121C49.6104 43.6133 49.4492 43.2002 49.4492 42.6729C49.4492 42.1396 49.5664 41.6064 49.8008 41.0732C50.041 40.5342 50.3545 40.0449 50.7412 39.6055C51.1279 39.1602 51.5527 38.7559 52.0156 38.3926C52.9883 37.6309 53.8848 37.25 54.7051 37.25C55.0215 37.25 55.2793 37.3027 55.4785 37.4082C55.6777 37.5137 55.8037 37.6455 55.8564 37.8037C55.9971 37.5928 56.1143 37.4609 56.208 37.4082C56.3076 37.3496 56.4541 37.3203 56.6475 37.3203ZM55.4785 38.2959C54.4766 38.2959 53.4395 38.8525 52.3672 39.9658C51.9863 40.3643 51.6348 40.8418 51.3125 41.3984C50.9961 41.9551 50.8379 42.3359 50.8379 42.541C50.8379 42.7461 50.8965 42.8486 51.0137 42.8486C51.1777 42.8486 51.6348 42.5264 52.3848 41.8818C53.1348 41.2314 53.6328 40.7539 53.8789 40.4492C54.1484 40.1094 54.6816 39.3916 55.4785 38.2959ZM68.3105 30.8252C68.4219 30.8252 68.5098 30.8604 68.5742 30.9307C68.6387 31.001 68.6709 31.0742 68.6709 31.1504C68.6709 31.2207 68.6123 31.3555 68.4951 31.5547C68.3838 31.748 68.123 32.1758 67.7129 32.8379C67.3027 33.4941 66.9834 34.0098 66.7549 34.3848C65.4248 36.5469 64.3818 38.375 63.626 39.8691C62.8701 41.3633 62.4922 42.2656 62.4922 42.5762V42.6465C62.4922 42.8867 62.5801 43.0068 62.7559 43.0068C62.9316 43.0068 63.1426 42.9248 63.3887 42.7607C63.6406 42.5967 63.8604 42.4209 64.0479 42.2334C64.2354 42.0459 64.4229 41.8525 64.6104 41.6533C64.8037 41.4482 64.9209 41.3281 64.9619 41.293C65.0029 41.2578 65.0557 41.2402 65.1201 41.2402C65.2197 41.2402 65.2842 41.3047 65.3135 41.4336C65.3428 41.5566 65.3574 41.7324 65.3574 41.9609C65.3574 42.1836 65.3398 42.3301 65.3047 42.4004C65.1348 42.7285 64.7598 43.1299 64.1797 43.6045C63.6055 44.0732 63.0605 44.3076 62.5449 44.3076C61.666 44.3076 61.2266 43.9355 61.2266 43.1914C61.2266 42.7285 61.4023 42.1221 61.7539 41.3721C61.2793 41.9873 60.7959 42.5117 60.3037 42.9453C59.3896 43.7422 58.5957 44.1406 57.9219 44.1406C57.5469 44.1406 57.2686 44.0088 57.0869 43.7451C56.9111 43.4814 56.8232 43.1035 56.8232 42.6113C56.8232 42.1133 57.0166 41.5186 57.4033 40.8271C57.79 40.1357 58.2705 39.5146 58.8447 38.9639C59.4248 38.4072 60.0664 37.9443 60.7695 37.5752C61.4727 37.2002 62.1201 37.0127 62.7119 37.0127C62.8994 37.0127 63.1191 37.127 63.3711 37.3555C63.541 37.0859 63.8545 36.5469 64.3115 35.7383C65.7471 33.3184 66.6963 31.8418 67.1592 31.3086C67.4053 30.9863 67.7891 30.8252 68.3105 30.8252ZM62.835 38.1816C61.9912 38.3691 61.2061 38.7617 60.4795 39.3594C59.7529 39.957 59.208 40.584 58.8447 41.2402C58.4814 41.8906 58.2998 42.3125 58.2998 42.5059C58.2998 42.6992 58.3408 42.7959 58.4229 42.7959C58.7744 42.7959 59.6445 42.0107 61.0332 40.4404C61.7246 39.667 62.3252 38.9141 62.835 38.1816ZM70.4111 34.3496C70.4111 34.6836 70.2559 35.0205 69.9453 35.3604C69.6348 35.6943 69.3096 35.8613 68.9697 35.8613C68.6357 35.8613 68.4688 35.6855 68.4688 35.334C68.4688 34.9824 68.6152 34.6484 68.9082 34.332C69.207 34.0098 69.5352 33.8486 69.8926 33.8486C70.0508 33.8486 70.1768 33.8926 70.2705 33.9805C70.3643 34.0684 70.4111 34.1914 70.4111 34.3496ZM68.9873 42.0225C68.9873 42.1982 68.9697 42.3242 68.9346 42.4004C68.6475 42.9863 68.1904 43.4609 67.5635 43.8242C66.9365 44.1816 66.3916 44.3604 65.9287 44.3604C65.4658 44.3604 65.0674 44.2051 64.7334 43.8945C64.3994 43.584 64.2324 43.2676 64.2324 42.9453C64.2324 42.623 64.3936 42.1543 64.7158 41.5391C65.0381 40.9238 65.3604 40.3555 65.6826 39.834C66.0049 39.3125 66.166 39.0313 66.166 38.9902C66.166 38.9434 66.1045 38.8555 65.9814 38.7266C65.8643 38.5977 65.8057 38.5039 65.8057 38.4453C65.8057 38.3809 65.9258 38.2197 66.166 37.9619C66.4121 37.6982 66.708 37.4404 67.0537 37.1885C67.4053 36.9307 67.6719 36.8018 67.8535 36.8018C68.041 36.8018 68.208 36.8838 68.3545 37.0479C68.501 37.2119 68.5742 37.3613 68.5742 37.4961C68.5742 37.6309 67.877 38.8994 66.4824 41.3018C66.4648 41.3369 66.415 41.416 66.333 41.5391C66.2568 41.6563 66.1953 41.7559 66.1484 41.8379C66.1074 41.9141 66.0576 42.0078 65.999 42.1191C65.8818 42.3535 65.8232 42.5498 65.8232 42.708C65.8232 42.9072 65.958 43.0068 66.2275 43.0068C66.4971 43.0068 66.7754 42.916 67.0625 42.7344C67.3555 42.5469 67.6074 42.3418 67.8184 42.1191C68.3691 41.5273 68.6826 41.2314 68.7588 41.2314C68.9111 41.2314 68.9873 41.4951 68.9873 42.0225Z" fill="white"/>
</svg>
