<?xml version="1.0" encoding="UTF-8" standalone="no"?><!DOCTYPE svg PUBLIC "-//W3C//DTD SVG 1.1//EN" "http://www.w3.org/Graphics/SVG/1.1/DTD/svg11.dtd"><svg width="100%" height="100%" viewBox="0 0 2470 316" version="1.1" xmlns="http://www.w3.org/2000/svg" xmlns:xlink="http://www.w3.org/1999/xlink" xml:space="preserve" xmlns:serif="http://www.serif.com/" style="fill-rule:evenodd;clip-rule:evenodd;stroke-linejoin:round;stroke-miterlimit:2;"><path d="M1924.53,285.887l-503.767,0l0,29.333l512.705,0l0.024,0.08c8.098,-1.8 23.395,-7.5 38.391,-21.3c19.795,-19.2 33.592,-49.8 53.087,-104.1l39.89,-114.6l-36.591,-0l-26.693,93c-2.999,11.1 -6.299,23.4 -8.698,33l-0.9,-0c-2.399,-9.6 -5.698,-22.2 -8.998,-33l-29.992,-93l-38.091,-0l56.686,152.4c1.5,3.3 1.8,5.4 1.8,7.2c-0,4.499 -12.889,38.08 -48.853,50.987Zm-1255.27,-146.995c-0,-35.123 -13.485,-67.192 -62.081,-67.192c-22.214,-0 -41.707,6.291 -53.395,13.78l7.193,23.094c10.488,-6.907 25.489,-11.412 40.198,-11.412c33.322,0 33.322,24.625 33.322,36.938c-56.737,0 -92.4,20.367 -92.4,61.486c0,25.51 17.681,48.277 48.572,48.277c20.713,-0 36.923,-9.586 46.226,-22.468l0.899,0l2.398,19.168l31.468,-0c-2.1,-10.8 -2.4,-25.2 -2.4,-39.3l-0,-62.371Zm1040.7,0c-0,-35.123 -13.485,-67.192 -62.081,-67.192c-22.214,-0 -41.707,6.291 -53.395,13.78l7.193,23.094c10.488,-6.907 25.489,-11.412 40.198,-11.412c33.322,0 33.322,24.625 33.322,36.938c-56.737,0 -92.4,20.367 -92.4,61.486c0,25.51 17.681,48.277 48.572,48.277c20.713,-0 36.923,-9.586 46.226,-22.468l0.899,0l2.398,19.168l31.468,-0c-2.1,-10.8 -2.4,-25.2 -2.4,-39.3l-0,-62.371Zm677.1,-138.892l-34.763,0l0,93.87l-0.6,-0c-7.203,-12.583 -22.511,-22.17 -43.821,-22.17c-36.913,-0 -68.979,31.764 -68.979,87.882c0,51.016 28.47,84.281 65.977,84.281c23.412,-0 41.421,-12.284 50.12,-29.063l0.899,-0l1.798,25.763l30.569,-0c-0.6,-11.4 -1.2,-29.1 -1.2,-44.1l-0,-196.463Zm-831.6,206.398c-9.9,4.801 -25.8,8.102 -41.4,8.102c-47.4,0 -76.8,-31.507 -76.8,-87.919c-0,-59.713 33,-89.719 77.4,-89.719c17.1,0 30.6,3.901 40.2,8.402l7.5,-28.476c-6.3,-3.296 -22.5,-8.988 -48.9,-8.988c-63.6,0 -112.763,42.565 -112.763,120.582c0,73.215 42.863,115.481 106.763,115.481c24.9,-0 44.4,-4.794 54,-9.588l-6,-27.877Zm-835.463,-131.098l-23.4,-0l0,26.062l23.4,0l0,85.528c0,21.608 3.896,35.401 12.287,44.389c7.192,8.089 18.879,12.584 32.676,12.584c11.7,-0 21,-1.499 27,-3.895l-1.2,-26.669c-4.2,1.201 -8.4,2.101 -15.3,2.101c-14.7,-0 -21,-9.903 -21,-30.31l-0,-83.728l39.3,0l-0,-26.062l-39.3,-0l-0,-40.8l-34.463,10.8l0,30Zm1485.26,63.592c-0,-35.123 -13.485,-67.192 -62.081,-67.192c-22.214,-0 -41.707,6.291 -53.395,13.78l7.193,23.094c10.488,-6.907 25.489,-11.412 40.198,-11.412c33.322,0 33.322,24.625 33.322,36.938c-56.737,0 -92.4,20.367 -92.4,61.486c0,25.51 17.681,48.277 48.572,48.277c20.713,-0 36.923,-9.586 46.226,-22.468l0.899,0l2.398,19.168l31.468,-0c-2.1,-10.8 -2.4,-25.2 -2.4,-39.3l-0,-62.371Zm-1085.4,0c-0,-35.123 -13.485,-67.192 -62.081,-67.192c-22.214,-0 -41.707,6.291 -53.395,13.78l7.193,23.094c10.488,-6.907 25.489,-11.412 40.198,-11.412c33.322,0 33.322,24.625 33.322,36.938c-56.737,0 -92.4,20.367 -92.4,61.486c0,25.51 17.681,48.277 48.572,48.277c20.713,-0 36.923,-9.586 46.226,-22.468l0.899,0l2.398,19.168l31.468,-0c-2.1,-10.8 -2.4,-25.2 -2.4,-39.3l-0,-62.371Zm-856.181,-67.192c-43.818,-0 -77.982,31.465 -77.982,87.282c0,53.416 32.666,84.881 75.581,84.881c37.217,-0 77.382,-25.464 77.382,-87.282c-0,-50.715 -29.669,-84.881 -74.981,-84.881Zm-129.319,-60.9l-27.3,59.768c-7.498,17.12 -14.39,32.437 -20.084,47.755l-0.599,-0c-5.994,-16.219 -12.587,-30.635 -20.08,-47.454l-27,-60.069l-39.3,-0l67.5,133.653l0,96.11l34.763,-0l-0,-97.011l71.1,-132.752l-39,-0Zm1165.8,128.663c-0,-50.985 -28.77,-67.763 -54.574,-67.763c-24.914,-0 -42.324,14.082 -50.123,28.163l-0.899,0l-1.799,-24.563l-30.268,-0c0.6,14.097 1.2,28.194 1.2,46.49l0,118.773l34.763,-0l-0,-99.578c-0,-26.422 18.31,-40.523 35.419,-40.523c23.714,0 31.518,19.801 31.518,43.201l0,96.9l34.763,-0l-0,-101.1Zm590.1,1.2c-0,-52.185 -28.77,-68.963 -53.673,-68.963c-18.011,-0 -36.621,8.988 -47.427,26.066l-0.6,0l-0,-97.766l-34.763,0l0,240.563l34.763,-0l-0,-101.1c-0,-24.9 18.31,-39.001 35.419,-39.001c23.414,0 31.518,19.801 31.518,43.501l0,96.6l34.763,-0l-0,-99.9Zm-1380.6,-1.2c-0,-50.985 -28.77,-67.763 -54.574,-67.763c-24.914,-0 -42.324,14.082 -50.123,28.163l-0.899,0l-1.799,-24.563l-30.268,-0c0.6,14.097 1.2,28.194 1.2,46.49l0,118.773l34.763,-0l-0,-99.578c-0,-26.422 18.31,-40.523 35.419,-40.523c23.714,0 31.518,19.801 31.518,43.201l0,96.9l34.763,-0l-0,-101.1Zm1956.6,-64.163l-34.763,-0l0,165.263l34.763,-0l-0,-165.263Zm-1506,65.363c-0,-52.185 -28.77,-68.963 -53.673,-68.963c-18.011,-0 -36.621,8.988 -47.427,26.066l-0.6,0l-0,-97.766l-34.763,0l0,240.563l34.763,-0l-0,-101.1c-0,-24.9 18.31,-39.001 35.419,-39.001c23.414,0 31.518,19.801 31.518,43.501l0,96.6l34.763,-0l-0,-99.9Zm-324.863,44.1c0,19.228 -15.61,33.637 -34.522,33.637c-12.908,-0 -24.315,-8.105 -24.315,-26.416c-0,-29.418 31.52,-34.522 58.837,-34.522l0,27.301Zm1040.7,-0c0,19.228 -15.61,33.637 -34.522,33.637c-12.908,-0 -24.315,-8.105 -24.315,-26.416c-0,-29.418 31.52,-34.522 58.837,-34.522l0,27.301Zm-590.1,-0c0,19.228 -15.61,33.637 -34.522,33.637c-12.908,-0 -24.315,-8.105 -24.315,-26.416c-0,-29.418 31.52,-34.522 58.837,-34.522l0,27.301Zm1085.4,-0c0,19.228 -15.61,33.637 -34.522,33.637c-12.908,-0 -24.315,-8.105 -24.315,-26.416c-0,-29.418 31.52,-34.522 58.837,-34.522l0,27.301Zm-1868.4,-27.281c0,33.01 -15.607,60.318 -40.819,60.318c-25.511,0 -40.818,-27.308 -40.818,-59.718c-0,-28.509 11.405,-60.319 41.118,-60.319c29.114,-0 40.519,32.41 40.519,59.719Zm2049.3,15.281c0,23.131 -14.707,42.937 -37.218,42.937c-26.412,0 -40.819,-24.908 -40.819,-57.318c-0,-32.711 14.707,-59.12 41.42,-59.12c19.509,0 36.617,15.906 36.617,42.914l0,30.587Zm116.963,-143.082c-0,-11.689 -8.093,-20.381 -20.082,-20.381c-11.989,0 -20.381,8.692 -20.381,20.381c0,11.09 8.092,20.082 20.081,20.082c12.589,-0 20.382,-8.992 20.382,-20.082Z" style="fill:#fff;"/><rect x="67.977" y="285.878" width="1370.23" height="29.358" style="fill:#fff;"/></svg>